Khula-wt937.36.ufo
<glyph name="exclam.deva" format="1">
  <advance width="862"/>
  <unicode hex="0021"/>
  <outline>
    <contour>
      <point x="571" y="456" type="line"/>
      <point x="291" y="456" type="line"/>
      <point x="245" y="1316" type="line"/>
      <point x="617" y="1316" type="line"/>
    </contour>
    <contour>
      <point x="246" y="145" type="curve" smooth="yes"/>
      <point x="246" y="251"/>
      <point x="311" y="314"/>
      <point x="430" y="314" type="curve" smooth="yes"/>
      <point x="548" y="314"/>
      <point x="610" y="251"/>
      <point x="610" y="145" type="curve" smooth="yes"/>
      <point x="610" y="39"/>
      <point x="543" y="-23"/>
      <point x="430" y="-23" type="curve" smooth="yes"/>
      <point x="315" y="-23"/>
      <point x="246" y="38"/>
    </contour>
  </outline>
</glyph>
<glyph name="quotedbl.deva" format="1">
  <advance width="1228"/>
  <unicode hex="0022"/>
  <outline>
    <contour>
      <point x="560" y="1316" type="line"/>
      <point x="523" y="841" type="line"/>
      <point x="277" y="841" type="line"/>
      <point x="240" y="1316" type="line"/>
    </contour>
    <contour>
      <point x="988" y="1316" type="line"/>
      <point x="951" y="841" type="line"/>
      <point x="704" y="841" type="line"/>
      <point x="667" y="1316" type="line"/>
    </contour>
  </outline>
</glyph>
<glyph name="ampersand" format="1">
  <advance width="1462"/>
  <unicode hex="0026"/>
  <outline>
    <contour>
      <point x="0" y="0" type="line"/>
      <point x="1462" y="0" type="line"/>
      <point x="1462" y="20" type="line"/>
      <point x="0" y="20" type="line"/>
    </contour>
  </outline>
</glyph>
<glyph name="parenleft.deva" format="1">
  <advance width="857"/>
  <unicode hex="0028"/>
  <outline>
    <contour>
      <point x="162" y="604" type="curve" smooth="yes"/>
      <point x="162" y="952"/>
      <point x="247" y="1234"/>
      <point x="414" y="1433" type="curve"/>
      <point x="707" y="1433" type="line"/>
      <point x="632" y="1328"/>
      <point x="573" y="1204"/>
      <point x="532" y="1062" type="curve" smooth="yes"/>
      <point x="491" y="920"/>
      <point x="471" y="768"/>
      <point x="471" y="606" type="curve" smooth="yes"/>
      <point x="471" y="449"/>
      <point x="491" y="301"/>
      <point x="530" y="160" type="curve" smooth="yes"/>
      <point x="570" y="19"/>
      <point x="628" y="-105"/>
      <point x="705" y="-212" type="curve"/>
      <point x="414" y="-212" type="line"/>
      <point x="249" y="-21"/>
      <point x="162" y="259"/>
    </contour>
  </outline>
</glyph>
<glyph name="parenright.deva" format="1">
  <advance width="856"/>
  <unicode hex="0029"/>
  <outline>
    <contour>
      <point x="696" y="604" type="curve" smooth="yes"/>
      <point x="696" y="264"/>
      <point x="608" y="-20"/>
      <point x="443" y="-212" type="curve"/>
      <point x="151" y="-212" type="line"/>
      <point x="227" y="-109"/>
      <point x="285" y="14"/>
      <point x="325" y="156" type="curve" smooth="yes"/>
      <point x="365" y="298"/>
      <point x="385" y="448"/>
      <point x="385" y="606" type="curve" smooth="yes"/>
      <point x="385" y="923"/>
      <point x="305" y="1216"/>
      <point x="149" y="1433" type="curve"/>
      <point x="443" y="1433" type="line"/>
      <point x="610" y="1233"/>
      <point x="696" y="943"/>
    </contour>
  </outline>
</glyph>
<glyph name="asterisk.deva" format="1">
  <advance width="1051"/>
  <unicode hex="002A"/>
  <outline>
    <contour>
      <point x="662" y="1400" type="line"/>
      <point x="628" y="1084" type="line"/>
      <point x="948" y="1174" type="line"/>
      <point x="981" y="909" type="line"/>
      <point x="699" y="890" type="line"/>
      <point x="885" y="640" type="line"/>
      <point x="651" y="516" type="line"/>
      <point x="522" y="770" type="line"/>
      <point x="412" y="517" type="line"/>
      <point x="167" y="640" type="line"/>
      <point x="352" y="890" type="line"/>
      <point x="70" y="913" type="line"/>
      <point x="111" y="1174" type="line"/>
      <point x="424" y="1084" type="line"/>
      <point x="389" y="1400" type="line"/>
    </contour>
  </outline>
</glyph>
<glyph name="plus.deva" format="1">
  <advance width="1044"/>
  <unicode hex="002B"/>
  <outline>
    <contour>
      <point x="415" y="544" type="line"/>
      <point x="138" y="544" type="line"/>
      <point x="138" y="755" type="line"/>
      <point x="415" y="755" type="line"/>
      <point x="415" y="1028" type="line"/>
      <point x="627" y="1028" type="line"/>
      <point x="627" y="755" type="line"/>
      <point x="904" y="755" type="line"/>
      <point x="904" y="544" type="line"/>
      <point x="627" y="544" type="line"/>
      <point x="627" y="277" type="line"/>
      <point x="415" y="277" type="line"/>
    </contour>
  </outline>
</glyph>
<glyph name="slash.deva" format="1">
  <advance width="803"/>
  <unicode hex="002F"/>
  <outline>
    <contour>
      <point x="799" y="1333" type="line"/>
      <point x="308" y="-17" type="line"/>
      <point x="10" y="-17" type="line"/>
      <point x="500" y="1333" type="line"/>
    </contour>
  </outline>
</glyph>
<glyph name="colon.deva" format="1">
  <advance width="588"/>
  <unicode hex="003A"/>
  <outline>
    <contour>
      <point x="131" y="145" type="curve" smooth="yes"/>
      <point x="131" y="253"/>
      <point x="195" y="314"/>
      <point x="316" y="314" type="curve" smooth="yes"/>
      <point x="430" y="314"/>
      <point x="495" y="253"/>
      <point x="495" y="145" type="curve" smooth="yes"/>
      <point x="495" y="39"/>
      <point x="427" y="-23"/>
      <point x="316" y="-23" type="curve" smooth="yes"/>
      <point x="201" y="-23"/>
      <point x="131" y="38"/>
    </contour>
    <contour>
      <point x="131" y="862" type="curve" smooth="yes"/>
      <point x="131" y="969"/>
      <point x="196" y="1030"/>
      <point x="316" y="1030" type="curve" smooth="yes"/>
      <point x="431" y="1030"/>
      <point x="495" y="969"/>
      <point x="495" y="862" type="curve" smooth="yes"/>
      <point x="495" y="757"/>
      <point x="428" y="695"/>
      <point x="316" y="695" type="curve" smooth="yes"/>
      <point x="198" y="695"/>
      <point x="131" y="756"/>
    </contour>
  </outline>
</glyph>
<glyph name="equal.deva" format="1">
  <advance width="1044"/>
  <unicode hex="003D"/>
  <outline>
    <contour>
      <point x="68" y="736" type="line"/>
      <point x="68" y="968" type="line"/>
      <point x="975" y="968" type="line"/>
      <point x="975" y="736" type="line"/>
    </contour>
    <contour>
      <point x="68" y="329" type="line"/>
      <point x="68" y="563" type="line"/>
      <point x="975" y="563" type="line"/>
      <point x="975" y="329" type="line"/>
    </contour>
  </outline>
</glyph>
<glyph name="greater.deva" format="1">
  <advance width="1044"/>
  <unicode hex="003E"/>
  <outline>
    <contour>
      <point x="67" y="420" type="line"/>
      <point x="637" y="652" type="line"/>
      <point x="67" y="913" type="line"/>
      <point x="67" y="1169" type="line"/>
      <point x="974" y="716" type="line"/>
      <point x="974" y="567" type="line"/>
      <point x="67" y="165" type="line"/>
    </contour>
  </outline>
</glyph>
<glyph name="question.deva" format="1">
  <advance width="1242"/>
  <unicode hex="003F"/>
  <outline>
    <contour>
      <point x="444" y="464" type="line"/>
      <point x="444" y="542" type="line" smooth="yes"/>
      <point x="444" y="601"/>
      <point x="456" y="650"/>
      <point x="480" y="690" type="curve" smooth="yes"/>
      <point x="504" y="731"/>
      <point x="547" y="770"/>
      <point x="608" y="809" type="curve" smooth="yes"/>
      <point x="705" y="870"/>
      <point x="745" y="913"/>
      <point x="745" y="976" type="curve" smooth="yes"/>
      <point x="745" y="1027"/>
      <point x="695" y="1058"/>
      <point x="622" y="1058" type="curve" smooth="yes"/>
      <point x="531" y="1058"/>
      <point x="425" y="1026"/>
      <point x="304" y="962" type="curve"/>
      <point x="179" y="1207" type="line"/>
      <point x="328" y="1292"/>
      <point x="484" y="1335"/>
      <point x="647" y="1335" type="curve" smooth="yes"/>
      <point x="781" y="1335"/>
      <point x="886" y="1305"/>
      <point x="962" y="1246" type="curve" smooth="yes"/>
      <point x="1038" y="1187"/>
      <point x="1076" y="1107"/>
      <point x="1076" y="1006" type="curve" smooth="yes"/>
      <point x="1076" y="861"/>
      <point x="1012" y="762"/>
      <point x="863" y="667" type="curve" smooth="yes"/>
      <point x="800" y="626"/>
      <point x="760" y="596"/>
      <point x="744" y="577" type="curve" smooth="yes"/>
      <point x="729" y="558"/>
      <point x="721" y="536"/>
      <point x="721" y="510" type="curve" smooth="yes"/>
      <point x="721" y="464" type="line"/>
    </contour>
    <contour>
      <point x="406" y="149" type="curve" smooth="yes"/>
      <point x="406" y="260"/>
      <point x="471" y="322"/>
      <point x="596" y="322" type="curve" smooth="yes"/>
      <point x="716" y="322"/>
      <point x="782" y="258"/>
      <point x="782" y="149" type="curve" smooth="yes"/>
      <point x="782" y="40"/>
      <point x="711" y="-23"/>
      <point x="596" y="-23" type="curve" smooth="yes"/>
      <point x="477" y="-23"/>
      <point x="406" y="40"/>
    </contour>
  </outline>
</glyph>
<glyph name="F" format="1">
  <advance width="990"/>
  <unicode hex="0046"/>
  <outline>
    <contour>
      <point x="479" y="0" type="line"/>
      <point x="145" y="0" type="line"/>
      <point x="145" y="1316" type="line"/>
      <point x="920" y="1316" type="line"/>
      <point x="920" y="1042" type="line"/>
      <point x="479" y="1042" type="line"/>
      <point x="479" y="772" type="line"/>
      <point x="885" y="772" type="line"/>
      <point x="885" y="500" type="line"/>
      <point x="479" y="500" type="line"/>
    </contour>
  </outline>
</glyph>
<glyph name="J" format="1">
  <advance width="604"/>
  <unicode hex="004A"/>
  <outline>
    <contour>
      <point x="46" y="-392" type="curve" smooth="yes"/>
      <point x="-13" y="-392"/>
      <point x="-50" y="-384"/>
      <point x="-77" y="-364" type="curve"/>
      <point x="-77" y="-80" type="line"/>
      <point x="-47" y="-92"/>
      <point x="-6" y="-98"/>
      <point x="53" y="-98" type="curve" smooth="yes"/>
      <point x="93" y="-98"/>
      <point x="126" y="-39"/>
      <point x="126" y="27" type="curve" smooth="yes"/>
      <point x="126" y="1316" type="line"/>
      <point x="463" y="1316" type="line"/>
      <point x="463" y="52" type="line"/>
      <point x="463" y="-197"/>
      <point x="296" y="-392"/>
    </contour>
  </outline>
</glyph>
<glyph name="K" format="1">
  <advance width="1254"/>
  <unicode hex="004B"/>
  <outline>
    <contour>
      <point x="1254" y="0" type="line"/>
      <point x="871" y="0" type="line"/>
      <point x="596" y="515" type="line"/>
      <point x="485" y="446" type="line"/>
      <point x="485" y="0" type="line"/>
      <point x="145" y="0" type="line"/>
      <point x="145" y="1316" type="line"/>
      <point x="485" y="1316" type="line"/>
      <point x="485" y="737" type="line"/>
      <point x="502" y="770"/>
      <point x="545" y="832"/>
      <point x="596" y="905" type="curve"/>
      <point x="888" y="1316" type="line"/>
      <point x="1259" y="1316" type="line"/>
      <point x="838" y="728" type="line"/>
    </contour>
  </outline>
</glyph>
<glyph name="P" format="1">
  <advance width="1207"/>
  <unicode hex="0050"/>
  <outline>
    <contour>
      <point x="1127" y="914" type="curve" smooth="yes"/>
      <point x="1127" y="619"/>
      <point x="911" y="435"/>
      <point x="513" y="435" type="curve" smooth="yes"/>
      <point x="503" y="435" type="line"/>
      <point x="503" y="0" type="line"/>
      <point x="166" y="0" type="line"/>
      <point x="166" y="1316" type="line"/>
      <point x="564" y="1316" type="line"/>
      <point x="942" y="1316"/>
      <point x="1127" y="1182"/>
    </contour>
    <contour>
      <point x="503" y="728" type="line"/>
      <point x="511" y="728" type="line"/>
      <point x="607" y="728"/>
      <point x="678" y="744"/>
      <point x="724" y="768" type="curve" smooth="yes"/>
      <point x="770" y="797"/>
      <point x="790" y="840"/>
      <point x="790" y="898" type="curve" smooth="yes"/>
      <point x="790" y="988"/>
      <point x="713" y="1032"/>
      <point x="532" y="1032" type="curve" smooth="yes"/>
      <point x="503" y="1032" type="line"/>
    </contour>
  </outline>
</glyph>
<glyph name="W" format="1">
  <advance width="1898"/>
  <unicode hex="0057"/>
  <outline>
    <contour>
      <point x="0" y="0" type="line"/>
      <point x="1898" y="0" type="line"/>
      <point x="1898" y="20" type="line"/>
      <point x="0" y="20" type="line"/>
    </contour>
  </outline>
</glyph>
<glyph name="Y" format="1">
  <advance width="1208"/>
  <unicode hex="0059"/>
  <outline>
    <contour>
      <point x="604" y="814" type="line"/>
      <point x="841" y="1316" type="line"/>
      <point x="1208" y="1316" type="line"/>
      <point x="775" y="514" type="line"/>
      <point x="775" y="0" type="line"/>
      <point x="433" y="0" type="line"/>
      <point x="433" y="503" type="line"/>
      <point x="0" y="1316" type="line"/>
      <point x="369" y="1316" type="line"/>
    </contour>
  </outline>
</glyph>
<glyph name="Z" format="1">
  <advance width="1120"/>
  <unicode hex="005A"/>
  <outline>
    <contour>
      <point x="1072" y="0" type="line"/>
      <point x="57" y="0" type="line"/>
      <point x="57" y="212" type="line"/>
      <point x="637" y="1041" type="line"/>
      <point x="70" y="1041" type="line"/>
      <point x="70" y="1316" type="line"/>
      <point x="1057" y="1316" type="line"/>
      <point x="1057" y="1105" type="line"/>
      <point x="477" y="275" type="line"/>
      <point x="1072" y="275" type="line"/>
    </contour>
  </outline>
</glyph>
<glyph name="underscore.deva" format="1">
  <advance width="914"/>
  <unicode hex="005F"/>
  <outline>
    <contour>
      <point x="917" y="-336" type="line"/>
      <point x="-4" y="-336" type="line"/>
      <point x="-4" y="-124" type="line"/>
      <point x="917" y="-124" type="line"/>
    </contour>
  </outline>
</glyph>
<glyph name="a" format="1">
  <advance width="1138"/>
  <unicode hex="0061"/>
  <outline>
    <contour>
      <point x="0" y="0" type="line"/>
      <point x="1138" y="0" type="line"/>
      <point x="1138" y="20" type="line"/>
      <point x="0" y="20" type="line"/>
    </contour>
  </outline>
</glyph>
<glyph name="m" format="1">
  <advance width="1832"/>
  <unicode hex="006D"/>
  <outline>
    <contour>
      <point x="1377" y="0" type="line"/>
      <point x="1377" y="561" type="line"/>
      <point x="1377" y="702"/>
      <point x="1339" y="770"/>
      <point x="1251" y="770" type="curve" smooth="yes"/>
      <point x="1137" y="770"/>
      <point x="1086" y="680"/>
      <point x="1086" y="481" type="curve" smooth="yes"/>
      <point x="1086" y="0" type="line"/>
      <point x="749" y="0" type="line"/>
      <point x="749" y="561" type="line"/>
      <point x="749" y="702"/>
      <point x="713" y="770"/>
      <point x="628" y="770" type="curve" smooth="yes"/>
      <point x="510" y="770"/>
      <point x="460" y="678"/>
      <point x="460" y="452" type="curve" smooth="yes"/>
      <point x="460" y="0" type="line"/>
      <point x="124" y="0" type="line"/>
      <point x="124" y="1017" type="line"/>
      <point x="378" y="1017" type="line"/>
      <point x="421" y="890" type="line"/>
      <point x="440" y="890" type="line"/>
      <point x="494" y="984"/>
      <point x="602" y="1035"/>
      <point x="732" y="1035" type="curve" smooth="yes"/>
      <point x="880" y="1035"/>
      <point x="984" y="989"/>
      <point x="1042" y="899" type="curve"/>
      <point x="1068" y="899" type="line"/>
      <point x="1125" y="984"/>
      <point x="1235" y="1035"/>
      <point x="1360" y="1035" type="curve" smooth="yes"/>
      <point x="1599" y="1035"/>
      <point x="1712" y="913"/>
      <point x="1712" y="661" type="curve" smooth="yes"/>
      <point x="1712" y="0" type="line"/>
    </contour>
  </outline>
</glyph>
<glyph name="s" format="1">
  <advance width="975"/>
  <unicode hex="0073"/>
  <outline>
    <contour>
      <point x="0" y="0" type="line"/>
      <point x="975" y="0" type="line"/>
      <point x="975" y="20" type="line"/>
      <point x="0" y="20" type="line"/>
    </contour>
  </outline>
</glyph>
<glyph name="t" format="1">
  <advance width="832"/>
  <unicode hex="0074"/>
  <outline>
    <contour>
      <point x="609" y="247" type="curve" smooth="yes"/>
      <point x="657" y="247"/>
      <point x="713" y="259"/>
      <point x="776" y="281" type="curve"/>
      <point x="776" y="37" type="line"/>
      <point x="732" y="17"/>
      <point x="688" y="3"/>
      <point x="646" y="-5" type="curve" smooth="yes"/>
      <point x="604" y="-14"/>
      <point x="555" y="-18"/>
      <point x="501" y="-18" type="curve" smooth="yes"/>
      <point x="269" y="-18"/>
      <point x="171" y="95"/>
      <point x="171" y="332" type="curve" smooth="yes"/>
      <point x="171" y="765" type="line"/>
      <point x="46" y="765" type="line"/>
      <point x="46" y="903" type="line"/>
      <point x="201" y="1010" type="line"/>
      <point x="290" y="1223" type="line"/>
      <point x="509" y="1223" type="line"/>
      <point x="509" y="1017" type="line"/>
      <point x="762" y="1017" type="line"/>
      <point x="762" y="765" type="line"/>
      <point x="509" y="765" type="line"/>
      <point x="509" y="353" type="line"/>
      <point x="509" y="283"/>
      <point x="543" y="247"/>
    </contour>
  </outline>
</glyph>
<glyph name="x" format="1">
  <advance width="1145"/>
  <unicode hex="0078"/>
  <outline>
    <contour>
      <point x="342" y="519" type="line"/>
      <point x="28" y="1017" type="line"/>
      <point x="409" y="1017" type="line"/>
      <point x="572" y="723" type="line"/>
      <point x="739" y="1017" type="line"/>
      <point x="1120" y="1017" type="line"/>
      <point x="799" y="519" type="line"/>
      <point x="1134" y="0" type="line"/>
      <point x="753" y="0" type="line"/>
      <point x="572" y="317" type="line"/>
      <point x="392" y="0" type="line"/>
      <point x="11" y="0" type="line"/>
    </contour>
  </outline>
</glyph>
<glyph name="divide.deva" format="1">
  <advance width="1044"/>
  <unicode hex="00F7"/>
  <outline>
    <contour>
      <point x="67" y="534" type="line"/>
      <point x="67" y="765" type="line"/>
      <point x="975" y="765" type="line"/>
      <point x="975" y="534" type="line"/>
    </contour>
    <contour>
      <point x="384" y="302" type="curve" smooth="yes"/>
      <point x="384" y="399"/>
      <point x="431" y="451"/>
      <point x="520" y="451" type="curve" smooth="yes"/>
      <point x="609" y="451"/>
      <point x="658" y="399"/>
      <point x="658" y="302" type="curve" smooth="yes"/>
      <point x="658" y="208"/>
      <point x="603" y="153"/>
      <point x="520" y="153" type="curve" smooth="yes"/>
      <point x="437" y="153"/>
      <point x="384" y="205"/>
    </contour>
    <contour>
      <point x="384" y="998" type="curve" smooth="yes"/>
      <point x="384" y="1095"/>
      <point x="431" y="1147"/>
      <point x="520" y="1147" type="curve" smooth="yes"/>
      <point x="609" y="1147"/>
      <point x="658" y="1095"/>
      <point x="658" y="998" type="curve" smooth="yes"/>
      <point x="658" y="904"/>
      <point x="603" y="849"/>
      <point x="520" y="849" type="curve" smooth="yes"/>
      <point x="437" y="849"/>
      <point x="384" y="901"/>
    </contour>
  </outline>
</glyph>
<glyph name="uudeva" format="1">
  <advance width="1648"/>
  <unicode hex="090A"/>
  <outline>
    <contour>
      <point x="933" y="312" type="curve"/>
      <point x="755" y="638" type="line"/>
      <point x="860" y="699"/>
      <point x="987" y="745"/>
      <point x="1118" y="745" type="curve" smooth="yes"/>
      <point x="1402" y="745"/>
      <point x="1579" y="565"/>
      <point x="1579" y="343" type="curve" smooth="yes"/>
      <point x="1579" y="205"/>
      <point x="1527" y="77"/>
      <point x="1456" y="-15" type="curve"/>
      <point x="1154" y="99" type="line"/>
      <point x="1224" y="196"/>
      <point x="1275" y="288"/>
      <point x="1275" y="375" type="curve" smooth="yes"/>
      <point x="1275" y="436"/>
      <point x="1239" y="475"/>
      <point x="1170" y="475" type="curve" smooth="yes"/>
      <point x="1090" y="475"/>
      <point x="1004" y="416"/>
    </contour>
    <contour>
      <point x="1146" y="1065" type="line"/>
      <point x="1136" y="1293" type="line"/>
      <point x="1678" y="1293" type="line"/>
      <point x="1678" y="1065" type="line"/>
    </contour>
    <component base="udeva"/>
    <contour>
      <point x="499" y="1293" type="move" name="top"/>
    </contour>
  </outline>
</glyph>
<glyph name="edeva" format="1">
  <advance width="1332"/>
  <unicode hex="090F"/>
  <outline>
    <contour>
      <point x="1162" y="1106" type="line"/>
      <point x="1162" y="739" type="line"/>
      <point x="1162" y="599"/>
      <point x="1125" y="509"/>
      <point x="1033" y="413" type="curve"/>
      <point x="762" y="546" type="line"/>
      <point x="799" y="630"/>
      <point x="814" y="694"/>
      <point x="814" y="809" type="curve" smooth="yes"/>
      <point x="814" y="1106" type="line"/>
    </contour>
    <contour>
      <point x="-30" y="1065" type="line"/>
      <point x="-30" y="1293" type="line"/>
      <point x="1362" y="1293" type="line"/>
      <point x="1362" y="1065" type="line"/>
    </contour>
    <contour>
      <point x="135" y="1106" type="line"/>
      <point x="483" y="1106" type="line"/>
      <point x="483" y="691" type="line"/>
      <point x="483" y="577"/>
      <point x="507" y="542"/>
      <point x="611" y="473" type="curve" smooth="yes"/>
      <point x="994" y="221" type="line"/>
      <point x="1122" y="136"/>
      <point x="1165" y="63"/>
      <point x="1165" y="-26" type="curve" smooth="yes"/>
      <point x="1165" y="-91"/>
      <point x="1139" y="-157"/>
      <point x="1107" y="-211" type="curve"/>
      <point x="746" y="-133" type="line"/>
      <point x="764" y="-98"/>
      <point x="779" y="-70"/>
      <point x="779" y="-37" type="curve" smooth="yes"/>
      <point x="779" y="-4"/>
      <point x="764" y="25"/>
      <point x="713" y="60" type="curve" smooth="yes"/>
      <point x="324" y="322" type="line"/>
      <point x="175" y="421"/>
      <point x="135" y="512"/>
      <point x="135" y="688" type="curve" smooth="yes"/>
    </contour>
    <contour>
      <point x="-36" y="8" type="move" name="x44"/>
    </contour>
  </outline>
</glyph>
<glyph name="khadeva" format="1">
  <advance width="1861"/>
  <unicode hex="0916"/>
  <outline>
    <contour>
      <point x="1366" y="713" type="curve"/>
      <point x="1366" y="350" type="line"/>
      <point x="1307" y="315"/>
      <point x="1239" y="299"/>
      <point x="1146" y="299" type="curve" smooth="yes"/>
      <point x="907" y="299"/>
      <point x="734" y="480"/>
      <point x="734" y="669" type="curve" smooth="yes"/>
      <point x="734" y="833"/>
      <point x="844" y="967"/>
      <point x="1082" y="967" type="curve" smooth="yes"/>
      <point x="1207" y="967"/>
      <point x="1302" y="941"/>
      <point x="1369" y="902" type="curve"/>
      <point x="1369" y="690" type="line"/>
      <point x="1300" y="725"/>
      <point x="1223" y="741"/>
      <point x="1146" y="741" type="curve" smooth="yes"/>
      <point x="1062" y="741"/>
      <point x="1011" y="687"/>
      <point x="1011" y="635" type="curve" smooth="yes"/>
      <point x="1011" y="580"/>
      <point x="1051" y="539"/>
      <point x="1112" y="539" type="curve" smooth="yes"/>
      <point x="1210" y="539"/>
      <point x="1304" y="611"/>
    </contour>
    <contour>
      <point x="256" y="723" type="line"/>
      <point x="392" y="762"/>
      <point x="424" y="836"/>
      <point x="424" y="950" type="curve" smooth="yes"/>
      <point x="424" y="1151" type="line"/>
      <point x="772" y="1151" type="line"/>
      <point x="772" y="933" type="line"/>
      <point x="772" y="723"/>
      <point x="721" y="539"/>
      <point x="461" y="415" type="curve"/>
    </contour>
    <contour>
      <point x="-30" y="1065" type="line"/>
      <point x="-30" y="1293" type="line"/>
      <point x="1891" y="1293" type="line"/>
      <point x="1891" y="1065" type="line"/>
    </contour>
    <contour>
      <point x="373" y="631" type="line"/>
      <point x="417" y="558"/>
      <point x="473" y="486"/>
      <point x="524" y="436" type="curve" smooth="yes"/>
      <point x="696" y="263"/>
      <point x="882" y="208"/>
      <point x="1077" y="208" type="curve" smooth="yes"/>
      <point x="1256" y="208"/>
      <point x="1387" y="251"/>
      <point x="1527" y="339" type="curve"/>
      <point x="1637" y="100" type="line"/>
      <point x="1504" y="27"/>
      <point x="1334" y="-26"/>
      <point x="1047" y="-26" type="curve" smooth="yes"/>
      <point x="779" y="-26"/>
      <point x="478" y="88"/>
      <point x="295" y="271" type="curve" smooth="yes"/>
      <point x="182" y="384"/>
      <point x="103" y="494"/>
      <point x="62" y="582" type="curve" smooth="yes"/>
      <point x="39" y="629"/>
      <point x="28" y="671"/>
      <point x="28" y="705" type="curve" smooth="yes"/>
      <point x="28" y="789"/>
      <point x="95" y="856"/>
      <point x="181" y="856" type="curve" smooth="yes"/>
      <point x="266" y="856"/>
      <point x="313" y="820"/>
      <point x="381" y="733" type="curve" smooth="yes"/>
      <point x="427" y="673" type="line"/>
    </contour>
    <contour>
      <point x="1324" y="1104" type="line"/>
      <point x="1672" y="1104" type="line"/>
      <point x="1672" y="0" type="line"/>
      <point x="1324" y="0" type="line"/>
    </contour>
    <contour>
      <point x="1324" y="1293" type="move" name="top"/>
    </contour>
  </outline>
</glyph>
<glyph name="ghadeva" format="1">
  <advance width="1503"/>
  <unicode hex="0918"/>
  <outline>
    <contour>
      <point x="820" y="637" type="line"/>
      <point x="809" y="636" type="line"/>
      <point x="649" y="623"/>
      <point x="591" y="561"/>
      <point x="591" y="502" type="curve" smooth="yes"/>
      <point x="591" y="451"/>
      <point x="639" y="414"/>
      <point x="710" y="414" type="curve" smooth="yes"/>
      <point x="854" y="414"/>
      <point x="994" y="533"/>
      <point x="1040" y="661" type="curve"/>
      <point x="1040" y="195" type="line"/>
      <point x="955" y="156"/>
      <point x="862" y="134"/>
      <point x="743" y="134" type="curve" smooth="yes"/>
      <point x="448" y="134"/>
      <point x="276" y="325"/>
      <point x="276" y="540" type="curve" smooth="yes"/>
      <point x="276" y="715"/>
      <point x="401" y="910"/>
      <point x="727" y="910" type="curve" smooth="yes"/>
      <point x="734" y="910" type="line"/>
    </contour>
    <contour>
      <point x="364" y="680" type="line"/>
      <point x="149" y="740"/>
      <point x="49" y="868"/>
      <point x="49" y="1024" type="curve" smooth="yes"/>
      <point x="49" y="1095"/>
      <point x="69" y="1161"/>
      <point x="123" y="1211" type="curve"/>
      <point x="459" y="1136" type="line"/>
      <point x="419" y="1096"/>
      <point x="404" y="1049"/>
      <point x="404" y="998" type="curve" smooth="yes"/>
      <point x="404" y="935"/>
      <point x="448" y="858"/>
      <point x="611" y="858" type="curve"/>
    </contour>
    <contour>
      <point x="-30" y="1065" type="line"/>
      <point x="-30" y="1293" type="line"/>
      <point x="1533" y="1293" type="line"/>
      <point x="1533" y="1065" type="line"/>
    </contour>
    <contour>
      <point x="966" y="1104" type="line"/>
      <point x="1315" y="1104" type="line"/>
      <point x="1315" y="0" type="line"/>
      <point x="966" y="0" type="line"/>
    </contour>
    <contour>
      <point x="966" y="1293" type="move" name="top"/>
    </contour>
  </outline>
</glyph>
<glyph name="jadeva" format="1">
  <advance width="1686"/>
  <unicode hex="091C"/>
  <outline>
    <contour>
      <point x="-30" y="1065" type="line"/>
      <point x="-30" y="1293" type="line"/>
      <point x="1716" y="1293" type="line"/>
      <point x="1716" y="1065" type="line"/>
    </contour>
    <contour>
      <point x="775" y="624" type="line"/>
      <point x="809" y="709" type="line"/>
      <point x="918" y="640"/>
      <point x="989" y="533"/>
      <point x="989" y="369" type="curve" smooth="yes"/>
      <point x="989" y="188"/>
      <point x="851" y="42"/>
      <point x="629" y="42" type="curve" smooth="yes"/>
      <point x="391" y="42"/>
      <point x="177" y="179"/>
      <point x="8" y="416" type="curve"/>
      <point x="166" y="648" type="line"/>
      <point x="353" y="404"/>
      <point x="461" y="343"/>
      <point x="553" y="343" type="curve" smooth="yes"/>
      <point x="629" y="343"/>
      <point x="678" y="391"/>
      <point x="678" y="461" type="curve" smooth="yes"/>
      <point x="678" y="548"/>
      <point x="607" y="629"/>
      <point x="441" y="668" type="curve"/>
      <point x="441" y="908" type="line"/>
      <point x="1200" y="908" type="line"/>
      <point x="1200" y="624" type="line"/>
    </contour>
    <contour>
      <point x="1149" y="1104" type="line"/>
      <point x="1498" y="1104" type="line"/>
      <point x="1498" y="0" type="line"/>
      <point x="1149" y="0" type="line"/>
    </contour>
    <contour>
      <point x="1149" y="1293" type="move" name="top"/>
    </contour>
  </outline>
</glyph>
<glyph name="jhadeva" format="1">
  <advance width="1789"/>
  <unicode hex="091D"/>
  <outline>
    <contour>
      <point x="1301" y="629" type="curve"/>
      <point x="1306" y="297" type="line"/>
      <point x="1276" y="287"/>
      <point x="1213" y="281"/>
      <point x="1167" y="281" type="curve" smooth="yes"/>
      <point x="1041" y="281"/>
      <point x="951" y="297"/>
      <point x="884" y="313" type="curve"/>
      <point x="876" y="565" type="line"/>
      <point x="940" y="551"/>
      <point x="997" y="543"/>
      <point x="1053" y="543" type="curve" smooth="yes"/>
      <point x="1128" y="543"/>
      <point x="1235" y="567"/>
    </contour>
    <contour>
      <point x="1252" y="1104" type="line"/>
      <point x="1600" y="1104" type="line"/>
      <point x="1600" y="0" type="line"/>
      <point x="1252" y="0" type="line"/>
    </contour>
    <contour>
      <point x="1819" y="1065" type="line"/>
      <point x="1085" y="1065" type="line"/>
      <point x="1085" y="1293" type="line"/>
      <point x="1819" y="1293" type="line"/>
    </contour>
    <component base="ideva"/>
    <contour>
      <point x="1252" y="1293" type="move" name="top"/>
    </contour>
  </outline>
</glyph>
<glyph name="nyadeva" format="1">
  <advance width="1863"/>
  <unicode hex="091E"/>
  <outline>
    <contour>
      <point x="926" y="692" type="line"/>
      <point x="1000" y="680"/>
      <point x="1070" y="673"/>
      <point x="1132" y="673" type="curve" smooth="yes"/>
      <point x="1238" y="673"/>
      <point x="1344" y="698"/>
      <point x="1408" y="731" type="curve"/>
      <point x="1408" y="414" type="line"/>
      <point x="1361" y="404"/>
      <point x="1289" y="393"/>
      <point x="1198" y="393" type="curve" smooth="yes"/>
      <point x="1116" y="393"/>
      <point x="978" y="406"/>
      <point x="926" y="418" type="curve"/>
    </contour>
    <contour>
      <point x="1041" y="513" type="curve" smooth="yes"/>
      <point x="1041" y="249"/>
      <point x="853" y="99"/>
      <point x="623" y="99" type="curve" smooth="yes"/>
      <point x="416" y="99"/>
      <point x="223" y="183"/>
      <point x="20" y="359" type="curve"/>
      <point x="131" y="599" type="line"/>
      <point x="310" y="439"/>
      <point x="433" y="380"/>
      <point x="555" y="380" type="curve" smooth="yes"/>
      <point x="682" y="380"/>
      <point x="741" y="451"/>
      <point x="740" y="535" type="curve" smooth="yes"/>
      <point x="739" y="614"/>
      <point x="670" y="675"/>
      <point x="576" y="675" type="curve" smooth="yes"/>
      <point x="491" y="675"/>
      <point x="403" y="638"/>
      <point x="346" y="592" type="curve"/>
      <point x="227" y="837" type="line"/>
      <point x="299" y="891"/>
      <point x="420" y="944"/>
      <point x="570" y="944" type="curve" smooth="yes"/>
      <point x="833" y="944"/>
      <point x="1041" y="776"/>
    </contour>
    <contour>
      <point x="-30" y="1065" type="line"/>
      <point x="-30" y="1293" type="line"/>
      <point x="1893" y="1293" type="line"/>
      <point x="1893" y="1065" type="line"/>
    </contour>
    <contour>
      <point x="1326" y="1104" type="line"/>
      <point x="1674" y="1104" type="line"/>
      <point x="1674" y="0" type="line"/>
      <point x="1326" y="0" type="line"/>
    </contour>
    <contour>
      <point x="1326" y="1293" type="move" name="top"/>
    </contour>
  </outline>
</glyph>
<glyph name="nnadeva" format="1">
  <advance width="1828"/>
  <unicode hex="0923"/>
  <outline>
    <contour>
      <point x="712" y="1086" type="line"/>
      <point x="1060" y="1086" type="line"/>
      <point x="1060" y="730" type="line"/>
      <point x="1060" y="452"/>
      <point x="916" y="265"/>
      <point x="602" y="265" type="curve" smooth="yes"/>
      <point x="279" y="265"/>
      <point x="112" y="468"/>
      <point x="112" y="728" type="curve" smooth="yes"/>
      <point x="112" y="1086" type="line"/>
      <point x="460" y="1086" type="line"/>
      <point x="460" y="661" type="line"/>
      <point x="460" y="572"/>
      <point x="506" y="516"/>
      <point x="582" y="516" type="curve" smooth="yes"/>
      <point x="662" y="516"/>
      <point x="712" y="573"/>
      <point x="712" y="695" type="curve" smooth="yes"/>
    </contour>
    <contour>
      <point x="-30" y="1065" type="line"/>
      <point x="-30" y="1293" type="line"/>
      <point x="1858" y="1293" type="line"/>
      <point x="1858" y="1065" type="line"/>
    </contour>
    <contour>
      <point x="1291" y="1104" type="line"/>
      <point x="1639" y="1104" type="line"/>
      <point x="1639" y="0" type="line"/>
      <point x="1291" y="0" type="line"/>
    </contour>
    <contour>
      <point x="1263" y="1293" type="move" name="top"/>
    </contour>
  </outline>
</glyph>
<glyph name="tadeva" format="1">
  <advance width="1342"/>
  <unicode hex="0924"/>
  <outline>
    <contour>
      <point x="873" y="908" type="line"/>
      <point x="873" y="619" type="line"/>
      <point x="659" y="619" type="line"/>
      <point x="479" y="619"/>
      <point x="419" y="528"/>
      <point x="419" y="418" type="curve" smooth="yes"/>
      <point x="419" y="321"/>
      <point x="466" y="212"/>
      <point x="559" y="49" type="curve"/>
      <point x="271" y="-33" type="line"/>
      <point x="151" y="162"/>
      <point x="87" y="347"/>
      <point x="89" y="505" type="curve" smooth="yes"/>
      <point x="92" y="732"/>
      <point x="233" y="908"/>
      <point x="579" y="908" type="curve" smooth="yes"/>
    </contour>
    <contour>
      <point x="-30" y="1065" type="line"/>
      <point x="-30" y="1293" type="line"/>
      <point x="1372" y="1293" type="line"/>
      <point x="1372" y="1065" type="line"/>
    </contour>
    <contour>
      <point x="806" y="1104" type="line"/>
      <point x="1154" y="1104" type="line"/>
      <point x="1154" y="0" type="line"/>
      <point x="806" y="0" type="line"/>
    </contour>
    <contour>
      <point x="806" y="1293" type="move" name="top"/>
    </contour>
  </outline>
</glyph>
<glyph name="thadeva" format="1">
  <advance width="1504"/>
  <unicode hex="0925"/>
  <outline>
    <contour>
      <point x="801" y="926" type="curve" smooth="yes"/>
      <point x="801" y="712"/>
      <point x="629" y="577"/>
      <point x="416" y="515" type="curve"/>
      <point x="417" y="620" type="line"/>
      <point x="492" y="535"/>
      <point x="571" y="490"/>
      <point x="678" y="490" type="curve" smooth="yes"/>
      <point x="831" y="490"/>
      <point x="962" y="564"/>
      <point x="1023" y="726" type="curve"/>
      <point x="1023" y="248" type="line"/>
      <point x="955" y="222"/>
      <point x="892" y="212"/>
      <point x="784" y="212" type="curve" smooth="yes"/>
      <point x="507" y="212"/>
      <point x="231" y="380"/>
      <point x="95" y="670" type="curve"/>
      <point x="95" y="676" type="line"/>
      <point x="317" y="715"/>
      <point x="505" y="828"/>
      <point x="505" y="967" type="curve" smooth="yes"/>
      <point x="505" y="1055"/>
      <point x="450" y="1105"/>
      <point x="392" y="1105" type="curve" smooth="yes"/>
      <point x="343" y="1105"/>
      <point x="315" y="1071"/>
      <point x="315" y="1022" type="curve" smooth="yes"/>
      <point x="315" y="962"/>
      <point x="366" y="904"/>
      <point x="490" y="856" type="curve"/>
      <point x="391" y="712" type="line"/>
      <point x="115" y="794"/>
      <point x="12" y="927"/>
      <point x="12" y="1082" type="curve" smooth="yes"/>
      <point x="12" y="1219"/>
      <point x="114" y="1340"/>
      <point x="324" y="1340" type="curve" smooth="yes"/>
      <point x="628" y="1340"/>
      <point x="801" y="1138"/>
    </contour>
    <contour>
      <point x="967" y="1104" type="line"/>
      <point x="1315" y="1104" type="line"/>
      <point x="1315" y="0" type="line"/>
      <point x="967" y="0" type="line"/>
    </contour>
    <contour>
      <point x="1534" y="1065" type="line"/>
      <point x="887" y="1065" type="line"/>
      <point x="887" y="1293" type="line"/>
      <point x="1534" y="1293" type="line"/>
    </contour>
    <contour>
      <point x="967" y="1293" type="move" name="top"/>
    </contour>
  </outline>
</glyph>
<glyph name="dadeva" format="1">
  <advance width="1248"/>
  <unicode hex="0926"/>
  <outline>
    <contour>
      <point x="-30" y="1065" type="line"/>
      <point x="-30" y="1293" type="line"/>
      <point x="1278" y="1293" type="line"/>
      <point x="1278" y="1065" type="line"/>
    </contour>
    <contour>
      <point x="675" y="166" type="line"/>
      <point x="939" y="247" type="line"/>
      <point x="1170" y="-188" type="line"/>
      <point x="918" y="-294" type="line"/>
    </contour>
    <contour>
      <point x="669" y="51" type="curve" smooth="yes"/>
      <point x="316" y="51"/>
      <point x="68" y="240"/>
      <point x="68" y="511" type="curve" smooth="yes"/>
      <point x="68" y="737"/>
      <point x="221" y="908"/>
      <point x="577" y="908" type="curve" smooth="yes"/>
      <point x="771" y="908" type="line"/>
      <point x="701" y="852" type="line"/>
      <point x="701" y="1096" type="line"/>
      <point x="1050" y="1096" type="line"/>
      <point x="1050" y="665" type="line"/>
      <point x="672" y="665" type="line"/>
      <point x="472" y="665"/>
      <point x="389" y="587"/>
      <point x="389" y="470" type="curve" smooth="yes"/>
      <point x="389" y="365"/>
      <point x="483" y="292"/>
      <point x="607" y="292" type="curve" smooth="yes"/>
      <point x="700" y="292"/>
      <point x="755" y="296"/>
      <point x="862" y="319" type="curve"/>
      <point x="657" y="204" type="line"/>
      <point x="628" y="259"/>
      <point x="615" y="313"/>
      <point x="615" y="369" type="curve" smooth="yes"/>
      <point x="615" y="435"/>
      <point x="656" y="510"/>
      <point x="802" y="510" type="curve" smooth="yes"/>
      <point x="999" y="510"/>
      <point x="1150" y="411"/>
      <point x="1150" y="291" type="curve" smooth="yes"/>
      <point x="1150" y="169"/>
      <point x="988" y="51"/>
    </contour>
    <contour>
      <point x="864" y="-191" type="move" name="btm"/>
    </contour>
    <contour>
      <point x="652" y="1293" type="move" name="top"/>
    </contour>
  </outline>
</glyph>
<glyph name="dhadeva" format="1">
  <advance width="1486"/>
  <unicode hex="0927"/>
  <outline>
    <contour>
      <point x="801" y="637" type="line"/>
      <point x="790" y="636" type="line"/>
      <point x="628" y="623"/>
      <point x="571" y="561"/>
      <point x="571" y="502" type="curve" smooth="yes"/>
      <point x="571" y="451"/>
      <point x="620" y="412"/>
      <point x="691" y="414" type="curve" smooth="yes"/>
      <point x="834" y="417"/>
      <point x="977" y="533"/>
      <point x="1023" y="662" type="curve"/>
      <point x="1023" y="195" type="line"/>
      <point x="938" y="156"/>
      <point x="842" y="134"/>
      <point x="724" y="134" type="curve" smooth="yes"/>
      <point x="430" y="134"/>
      <point x="256" y="324"/>
      <point x="256" y="540" type="curve" smooth="yes"/>
      <point x="256" y="715"/>
      <point x="381" y="910"/>
      <point x="707" y="910" type="curve" smooth="yes"/>
      <point x="714" y="910" type="line"/>
    </contour>
    <contour>
      <point x="332" y="680" type="line"/>
      <point x="116" y="742"/>
      <point x="-4" y="878"/>
      <point x="-4" y="1048" type="curve" smooth="yes"/>
      <point x="-4" y="1207"/>
      <point x="134" y="1342"/>
      <point x="398" y="1342" type="curve" smooth="yes"/>
      <point x="498" y="1342"/>
      <point x="564" y="1332"/>
      <point x="624" y="1315" type="curve"/>
      <point x="605" y="1107" type="line"/>
      <point x="561" y="1115"/>
      <point x="535" y="1119"/>
      <point x="485" y="1119" type="curve" smooth="yes"/>
      <point x="400" y="1119"/>
      <point x="345" y="1067"/>
      <point x="345" y="1007" type="curve" smooth="yes"/>
      <point x="345" y="931"/>
      <point x="418" y="858"/>
      <point x="575" y="857" type="curve"/>
    </contour>
    <contour>
      <point x="950" y="1103" type="line"/>
      <point x="1298" y="1103" type="line"/>
      <point x="1298" y="0" type="line"/>
      <point x="950" y="0" type="line"/>
    </contour>
    <contour>
      <point x="1516" y="1065" type="line"/>
      <point x="875" y="1065" type="line"/>
      <point x="875" y="1293" type="line"/>
      <point x="1516" y="1293" type="line"/>
    </contour>
    <contour>
      <point x="950" y="1293" type="move" name="top"/>
    </contour>
  </outline>
</glyph>
<glyph name="badeva" format="1">
  <advance width="1294"/>
  <unicode hex="092C"/>
  <outline>
    <contour>
      <point x="782" y="437" type="line"/>
      <point x="655" y="343" type="line"/>
      <point x="349" y="693" type="line"/>
      <point x="475" y="786" type="line"/>
    </contour>
    <contour>
      <point x="1324" y="1065" type="line"/>
      <point x="-30" y="1065" type="line"/>
      <point x="-30" y="1293" type="line"/>
      <point x="1324" y="1293" type="line"/>
    </contour>
    <contour>
      <point x="795" y="571" type="curve"/>
      <point x="795" y="214" type="line"/>
      <point x="730" y="179"/>
      <point x="655" y="159"/>
      <point x="560" y="159" type="curve" smooth="yes"/>
      <point x="250" y="159"/>
      <point x="58" y="376"/>
      <point x="58" y="615" type="curve" smooth="yes"/>
      <point x="58" y="811"/>
      <point x="216" y="952"/>
      <point x="464" y="952" type="curve" smooth="yes"/>
      <point x="619" y="952"/>
      <point x="747" y="926"/>
      <point x="851" y="883" type="curve"/>
      <point x="851" y="634" type="line"/>
      <point x="735" y="681"/>
      <point x="653" y="706"/>
      <point x="555" y="706" type="curve" smooth="yes"/>
      <point x="437" y="706"/>
      <point x="369" y="654"/>
      <point x="369" y="559" type="curve" smooth="yes"/>
      <point x="369" y="484"/>
      <point x="427" y="420"/>
      <point x="513" y="420" type="curve" smooth="yes"/>
      <point x="619" y="420"/>
      <point x="713" y="468"/>
    </contour>
    <contour>
      <point x="757" y="1104" type="line"/>
      <point x="1105" y="1104" type="line"/>
      <point x="1105" y="0" type="line"/>
      <point x="757" y="0" type="line"/>
    </contour>
    <contour>
      <point x="757" y="1293" type="move" name="top"/>
    </contour>
  </outline>
</glyph>
<glyph name="bhadeva" format="1">
  <advance width="1545"/>
  <unicode hex="092D"/>
  <outline>
    <contour>
      <point x="1008" y="1104" type="line"/>
      <point x="1356" y="1104" type="line"/>
      <point x="1356" y="0" type="line"/>
      <point x="1008" y="0" type="line"/>
    </contour>
    <contour>
      <point x="1575" y="1065" type="line"/>
      <point x="931" y="1065" type="line"/>
      <point x="931" y="1293" type="line"/>
      <point x="1575" y="1293" type="line"/>
    </contour>
    <contour>
      <point x="443" y="693" type="line"/>
      <point x="407" y="663" type="line"/>
      <point x="407" y="994" type="line"/>
      <point x="407" y="1089"/>
      <point x="358" y="1141"/>
      <point x="293" y="1141" type="curve" smooth="yes"/>
      <point x="243" y="1141"/>
      <point x="211" y="1106"/>
      <point x="211" y="1062" type="curve" smooth="yes"/>
      <point x="211" y="1004"/>
      <point x="261" y="956"/>
      <point x="421" y="955" type="curve"/>
      <point x="424" y="755" type="line"/>
      <point x="73" y="756"/>
      <point x="-84" y="912"/>
      <point x="-84" y="1104" type="curve" smooth="yes"/>
      <point x="-84" y="1245"/>
      <point x="17" y="1379"/>
      <point x="258" y="1379" type="curve" smooth="yes"/>
      <point x="527" y="1379"/>
      <point x="727" y="1205"/>
      <point x="727" y="949" type="curve" smooth="yes"/>
      <point x="727" y="650" type="line"/>
      <point x="694" y="693" type="line"/>
      <point x="1036" y="693" type="line"/>
      <point x="1036" y="410" type="line"/>
      <point x="677" y="410" type="line"/>
      <point x="727" y="459" type="line"/>
      <point x="727" y="329" type="line"/>
      <point x="727" y="240"/>
      <point x="694" y="187"/>
      <point x="606" y="187" type="curve" smooth="yes"/>
      <point x="524" y="187"/>
      <point x="410" y="239"/>
      <point x="331" y="318" type="curve" smooth="yes"/>
      <point x="261" y="387"/>
      <point x="207" y="486"/>
      <point x="207" y="572" type="curve" smooth="yes"/>
      <point x="207" y="643"/>
      <point x="251" y="693"/>
      <point x="337" y="693" type="curve" smooth="yes"/>
    </contour>
    <contour>
      <point x="1008" y="1293" type="move" name="top"/>
    </contour>
  </outline>
</glyph>
<glyph name="madeva" format="1">
  <advance width="1398"/>
  <unicode hex="092E"/>
  <outline>
    <contour>
      <point x="-30" y="1065" type="line"/>
      <point x="-30" y="1293" type="line"/>
      <point x="1428" y="1293" type="line"/>
      <point x="1428" y="1065" type="line"/>
    </contour>
    <contour>
      <point x="861" y="1104" type="line"/>
      <point x="1210" y="1104" type="line"/>
      <point x="1210" y="0" type="line"/>
      <point x="861" y="0" type="line"/>
    </contour>
    <contour>
      <point x="41" y="572" type="curve" smooth="yes"/>
      <point x="41" y="643"/>
      <point x="85" y="693"/>
      <point x="172" y="693" type="curve" smooth="yes"/>
      <point x="250" y="693" type="line"/>
      <point x="214" y="663" type="line"/>
      <point x="214" y="1104" type="line"/>
      <point x="562" y="1104" type="line"/>
      <point x="562" y="650" type="line"/>
      <point x="530" y="693" type="line"/>
      <point x="910" y="693" type="line"/>
      <point x="910" y="410" type="line"/>
      <point x="512" y="410" type="line"/>
      <point x="562" y="459" type="line"/>
      <point x="562" y="329" type="line"/>
      <point x="562" y="240"/>
      <point x="528" y="187"/>
      <point x="441" y="187" type="curve" smooth="yes"/>
      <point x="358" y="187"/>
      <point x="244" y="239"/>
      <point x="166" y="318" type="curve" smooth="yes"/>
      <point x="96" y="387"/>
      <point x="41" y="486"/>
    </contour>
    <contour>
      <point x="861" y="1293" type="move" name="top"/>
    </contour>
  </outline>
</glyph>
<glyph name="yadeva" format="1">
  <advance width="1422"/>
  <unicode hex="092F"/>
  <outline>
    <contour>
      <point x="-30" y="1065" type="line"/>
      <point x="-30" y="1293" type="line"/>
      <point x="1452" y="1293" type="line"/>
      <point x="1452" y="1065" type="line"/>
    </contour>
    <contour>
      <point x="320" y="1104" type="line"/>
      <point x="669" y="1104" type="line"/>
      <point x="669" y="933" type="line"/>
      <point x="669" y="713"/>
      <point x="577" y="588"/>
      <point x="343" y="518" type="curve"/>
      <point x="343" y="622" type="line"/>
      <point x="408" y="539"/>
      <point x="484" y="490"/>
      <point x="598" y="490" type="curve" smooth="yes"/>
      <point x="753" y="490"/>
      <point x="874" y="570"/>
      <point x="931" y="703" type="curve"/>
      <point x="931" y="245" type="line"/>
      <point x="875" y="223"/>
      <point x="805" y="212"/>
      <point x="711" y="212" type="curve" smooth="yes"/>
      <point x="404" y="212"/>
      <point x="142" y="397"/>
      <point x="12" y="668" type="curve"/>
      <point x="12" y="674" type="line"/>
      <point x="229" y="745"/>
      <point x="320" y="823"/>
      <point x="320" y="956" type="curve" smooth="yes"/>
    </contour>
    <contour>
      <point x="885" y="1104" type="line"/>
      <point x="1233" y="1104" type="line"/>
      <point x="1233" y="0" type="line"/>
      <point x="885" y="0" type="line"/>
    </contour>
    <contour>
      <point x="885" y="1293" type="move" name="top"/>
    </contour>
  </outline>
</glyph>
<glyph name="radeva" format="1">
  <advance width="1004"/>
  <unicode hex="0930"/>
  <outline>
    <contour>
      <point x="832" y="94" type="line"/>
      <point x="583" y="-67" type="line"/>
      <point x="106" y="554" type="line"/>
      <point x="53" y="622"/>
      <point x="28" y="679"/>
      <point x="28" y="739" type="curve" smooth="yes"/>
      <point x="28" y="816"/>
      <point x="84" y="885"/>
      <point x="176" y="885" type="curve" smooth="yes"/>
      <point x="244" y="885"/>
      <point x="293" y="848"/>
      <point x="335" y="793" type="curve" smooth="yes"/>
      <point x="432" y="664" type="line"/>
      <point x="416" y="643" type="line"/>
    </contour>
    <contour>
      <point x="335" y="712" type="line"/>
      <point x="481" y="756"/>
      <point x="526" y="823"/>
      <point x="526" y="946" type="curve" smooth="yes"/>
      <point x="526" y="1123" type="line"/>
      <point x="875" y="1123" type="line"/>
      <point x="875" y="892" type="line"/>
      <point x="875" y="701"/>
      <point x="750" y="515"/>
      <point x="538" y="431" type="curve"/>
    </contour>
    <contour>
      <point x="-30" y="1065" type="line"/>
      <point x="-30" y="1293" type="line"/>
      <point x="1034" y="1293" type="line"/>
      <point x="1034" y="1065" type="line"/>
    </contour>
    <contour>
      <point x="475" y="51" type="move" name="btm"/>
    </contour>
    <contour>
      <point x="526" y="1293" type="move" name="top"/>
    </contour>
  </outline>
</glyph>
<glyph name="ladeva" format="1">
  <advance width="1653"/>
  <unicode hex="0932"/>
  <outline>
    <contour>
      <point x="1038" y="635" type="curve"/>
      <point x="833" y="465" type="line"/>
      <point x="744" y="570"/>
      <point x="664" y="618"/>
      <point x="570" y="618" type="curve" smooth="yes"/>
      <point x="453" y="618"/>
      <point x="387" y="532"/>
      <point x="387" y="436" type="curve" smooth="yes"/>
      <point x="387" y="341"/>
      <point x="445" y="253"/>
      <point x="598" y="107" type="curve"/>
      <point x="354" y="-22" type="line"/>
      <point x="175" y="139"/>
      <point x="69" y="321"/>
      <point x="69" y="509" type="curve" smooth="yes"/>
      <point x="69" y="740"/>
      <point x="233" y="908"/>
      <point x="468" y="908" type="curve" smooth="yes"/>
      <point x="687" y="908"/>
      <point x="838" y="830"/>
    </contour>
    <contour>
      <point x="1117" y="1104" type="line"/>
      <point x="1465" y="1104" type="line"/>
      <point x="1465" y="0" type="line"/>
      <point x="1117" y="0" type="line"/>
    </contour>
    <contour>
      <point x="-30" y="1065" type="line"/>
      <point x="-30" y="1293" type="line"/>
      <point x="1683" y="1293" type="line"/>
      <point x="1683" y="1065" type="line"/>
    </contour>
    <contour>
      <point x="1234" y="997" type="line"/>
      <point x="1234" y="598" type="line"/>
      <point x="801" y="197" type="line"/>
      <point x="585" y="396" type="line"/>
    </contour>
    <contour>
      <point x="1117" y="1293" type="move" name="top"/>
    </contour>
  </outline>
</glyph>
<glyph name="shadeva" format="1">
  <advance width="1694"/>
  <unicode hex="0936"/>
  <outline>
    <contour>
      <point x="634" y="425" type="line"/>
      <point x="928" y="119" type="line"/>
      <point x="729" y="-63" type="line"/>
      <point x="378" y="300" type="line"/>
    </contour>
    <contour>
      <point x="296" y="225" type="curve" smooth="yes"/>
      <point x="156" y="225"/>
      <point x="102" y="310"/>
      <point x="102" y="415" type="curve" smooth="yes"/>
      <point x="102" y="535"/>
      <point x="185" y="651"/>
      <point x="301" y="651" type="curve" smooth="yes"/>
      <point x="385" y="651"/>
      <point x="449" y="607"/>
      <point x="532" y="529" type="curve"/>
      <point x="419" y="546" type="line"/>
      <point x="590" y="599"/>
      <point x="689" y="721"/>
      <point x="689" y="888" type="curve" smooth="yes"/>
      <point x="689" y="996"/>
      <point x="614" y="1075"/>
      <point x="515" y="1075" type="curve" smooth="yes"/>
      <point x="460" y="1075"/>
      <point x="425" y="1038"/>
      <point x="425" y="992" type="curve" smooth="yes"/>
      <point x="425" y="915"/>
      <point x="510" y="854"/>
      <point x="764" y="850" type="curve"/>
      <point x="684" y="647" type="line"/>
      <point x="272" y="682"/>
      <point x="130" y="845"/>
      <point x="130" y="1031" type="curve" smooth="yes"/>
      <point x="130" y="1185"/>
      <point x="246" y="1317"/>
      <point x="482" y="1317" type="curve" smooth="yes"/>
      <point x="772" y="1317"/>
      <point x="974" y="1133"/>
      <point x="974" y="843" type="curve" smooth="yes"/>
      <point x="974" y="487"/>
      <point x="570" y="225"/>
    </contour>
    <contour>
      <point x="1157" y="1104" type="line"/>
      <point x="1506" y="1104" type="line"/>
      <point x="1506" y="0" type="line"/>
      <point x="1157" y="0" type="line"/>
    </contour>
    <contour>
      <point x="1724" y="1065" type="line"/>
      <point x="1020" y="1065" type="line"/>
      <point x="1020" y="1293" type="line"/>
      <point x="1724" y="1293" type="line"/>
    </contour>
    <contour>
      <point x="1157" y="1293" type="move" name="top"/>
    </contour>
  </outline>
</glyph>
<glyph name="ssadeva" format="1">
  <advance width="1307"/>
  <unicode hex="0937"/>
  <outline>
    <contour>
      <point x="883" y="606" type="line"/>
      <point x="756" y="512" type="line"/>
      <point x="309" y="1053" type="line"/>
      <point x="435" y="1147" type="line"/>
    </contour>
    <contour>
      <point x="1336" y="1065" type="line"/>
      <point x="-30" y="1065" type="line"/>
      <point x="-30" y="1293" type="line"/>
      <point x="1336" y="1293" type="line"/>
    </contour>
    <contour>
      <point x="453" y="1169" type="line"/>
      <point x="453" y="688" type="line"/>
      <point x="453" y="601"/>
      <point x="501" y="549"/>
      <point x="575" y="549" type="curve" smooth="yes"/>
      <point x="661" y="549"/>
      <point x="733" y="579"/>
      <point x="795" y="659" type="curve"/>
      <point x="795" y="294" type="line"/>
      <point x="747" y="282"/>
      <point x="683" y="273"/>
      <point x="613" y="273" type="curve" smooth="yes"/>
      <point x="314" y="273"/>
      <point x="113" y="453"/>
      <point x="113" y="756" type="curve" smooth="yes"/>
      <point x="113" y="1169" type="line"/>
    </contour>
    <contour>
      <point x="769" y="1104" type="line"/>
      <point x="1118" y="1104" type="line"/>
      <point x="1118" y="0" type="line"/>
      <point x="769" y="0" type="line"/>
    </contour>
    <contour>
      <point x="769" y="1293" type="move" name="top"/>
    </contour>
  </outline>
</glyph>
<glyph name="sadeva" format="1">
  <advance width="1609"/>
  <unicode hex="0938"/>
  <outline>
    <contour>
      <point x="832" y="94" type="line"/>
      <point x="583" y="-67" type="line"/>
      <point x="106" y="554" type="line"/>
      <point x="53" y="622"/>
      <point x="28" y="679"/>
      <point x="28" y="739" type="curve" smooth="yes"/>
      <point x="28" y="816"/>
      <point x="84" y="885"/>
      <point x="176" y="885" type="curve" smooth="yes"/>
      <point x="244" y="885"/>
      <point x="293" y="848"/>
      <point x="335" y="793" type="curve" smooth="yes"/>
      <point x="432" y="664" type="line"/>
      <point x="416" y="643" type="line"/>
    </contour>
    <contour>
      <point x="265" y="718" type="line"/>
      <point x="392" y="762"/>
      <point x="441" y="823"/>
      <point x="441" y="955" type="curve" smooth="yes"/>
      <point x="441" y="1123" type="line"/>
      <point x="789" y="1123" type="line"/>
      <point x="789" y="901" type="line"/>
      <point x="789" y="710"/>
      <point x="671" y="552"/>
      <point x="449" y="449" type="curve"/>
    </contour>
    <contour>
      <point x="-30" y="1065" type="line"/>
      <point x="-30" y="1293" type="line"/>
      <point x="1639" y="1293" type="line"/>
      <point x="1639" y="1065" type="line"/>
    </contour>
    <contour>
      <point x="520" y="508" type="curve"/>
      <point x="654" y="740" type="line"/>
      <point x="721" y="716"/>
      <point x="803" y="705"/>
      <point x="862" y="705" type="curve" smooth="yes"/>
      <point x="946" y="705"/>
      <point x="1013" y="711"/>
      <point x="1099" y="729" type="curve"/>
      <point x="1099" y="437" type="line"/>
      <point x="1038" y="427"/>
      <point x="993" y="421"/>
      <point x="916" y="421" type="curve" smooth="yes"/>
      <point x="780" y="421"/>
      <point x="654" y="448"/>
    </contour>
    <contour>
      <point x="1072" y="1104" type="line"/>
      <point x="1420" y="1104" type="line"/>
      <point x="1420" y="0" type="line"/>
      <point x="1072" y="0" type="line"/>
    </contour>
    <contour>
      <point x="1072" y="1293" type="move" name="top"/>
    </contour>
  </outline>
</glyph>
<glyph name="avagrahadeva" format="1">
  <advance width="1200"/>
  <unicode hex="093D"/>
  <outline>
    <contour>
      <point x="1045" y="362" type="curve" smooth="yes"/>
      <point x="1045" y="139"/>
      <point x="875" y="6"/>
      <point x="631" y="6" type="curve" smooth="yes"/>
      <point x="449" y="6"/>
      <point x="262" y="51"/>
      <point x="78" y="167" type="curve"/>
      <point x="146" y="427" type="line"/>
      <point x="310" y="319"/>
      <point x="439" y="271"/>
      <point x="545" y="271" type="curve" smooth="yes"/>
      <point x="652" y="271"/>
      <point x="720" y="315"/>
      <point x="720" y="394" type="curve" smooth="yes"/>
      <point x="720" y="468"/>
      <point x="684" y="508"/>
      <point x="490" y="654" type="curve" smooth="yes"/>
      <point x="296" y="800"/>
      <point x="230" y="890"/>
      <point x="230" y="1028" type="curve" smooth="yes"/>
      <point x="230" y="1176"/>
      <point x="343" y="1293"/>
      <point x="594" y="1293" type="curve" smooth="yes"/>
      <point x="1022" y="1293" type="line"/>
      <point x="1022" y="1065" type="line"/>
      <point x="692" y="1065" type="line"/>
      <point x="608" y="1065"/>
      <point x="576" y="1030"/>
      <point x="575" y="977" type="curve" smooth="yes"/>
      <point x="574" y="930"/>
      <point x="613" y="892"/>
      <point x="768" y="779" type="curve" smooth="yes"/>
      <point x="972" y="628"/>
      <point x="1045" y="517"/>
    </contour>
  </outline>
</glyph>
<glyph name="aavowelsigndeva" format="1">
  <advance width="676"/>
  <unicode hex="093E"/>
  <outline>
    <contour>
      <point x="139" y="1104" type="line"/>
      <point x="487" y="1104" type="line"/>
      <point x="487" y="0" type="line"/>
      <point x="139" y="0" type="line"/>
    </contour>
    <contour>
      <point x="706" y="1065" type="line"/>
      <point x="-30" y="1065" type="line"/>
      <point x="-30" y="1293" type="line"/>
      <point x="706" y="1293" type="line"/>
    </contour>
  </outline>
</glyph>
<glyph name="iivowelsigndeva" format="1">
  <advance width="676"/>
  <unicode hex="0940"/>
  <outline>
    <contour>
      <point x="138" y="1239" type="line"/>
      <point x="52" y="1442"/>
      <point x="-71" y="1535"/>
      <point x="-184" y="1535" type="curve" smooth="yes"/>
      <point x="-257" y="1535"/>
      <point x="-297" y="1485"/>
      <point x="-297" y="1420" type="curve" smooth="yes"/>
      <point x="-297" y="1357"/>
      <point x="-262" y="1304"/>
      <point x="-214" y="1251" type="curve"/>
      <point x="-557" y="1251" type="line"/>
      <point x="-599" y="1324"/>
      <point x="-630" y="1398"/>
      <point x="-630" y="1504" type="curve" smooth="yes"/>
      <point x="-630" y="1658"/>
      <point x="-522" y="1828"/>
      <point x="-254" y="1828" type="curve" smooth="yes"/>
      <point x="67" y="1828"/>
      <point x="333" y="1620"/>
      <point x="484" y="1239" type="curve"/>
    </contour>
    <component base="aavowelsigndeva"/>
  </outline>
</glyph>
<glyph name="uuvowelsigndeva" format="1">
  <advance width="0"/>
  <unicode hex="0942"/>
  <outline>
    <contour>
      <point x="-132" y="-623" type="line"/>
      <point x="-212" y="-651"/>
      <point x="-284" y="-659"/>
      <point x="-385" y="-659" type="curve" smooth="yes"/>
      <point x="-613" y="-659"/>
      <point x="-834" y="-518"/>
      <point x="-834" y="-282" type="curve" smooth="yes"/>
      <point x="-834" y="-121"/>
      <point x="-669" y="39"/>
      <point x="-415" y="39" type="curve" smooth="yes"/>
      <point x="-135" y="39"/>
      <point x="55" y="-108"/>
      <point x="301" y="-396" type="curve"/>
      <point x="139" y="-580" type="line"/>
      <point x="-103" y="-302"/>
      <point x="-235" y="-237"/>
      <point x="-382" y="-237" type="curve" smooth="yes"/>
      <point x="-484" y="-237"/>
      <point x="-531" y="-287"/>
      <point x="-531" y="-346" type="curve" smooth="yes"/>
      <point x="-531" y="-400"/>
      <point x="-490" y="-437"/>
      <point x="-403" y="-437" type="curve" smooth="yes"/>
      <point x="-346" y="-437"/>
      <point x="-293" y="-430"/>
      <point x="-206" y="-399" type="curve"/>
    </contour>
    <contour>
      <point x="-539" y="0" type="move" name="_btm"/>
    </contour>
  </outline>
</glyph>
<glyph name="rvocalicvowelsigndeva" format="1">
  <advance width="0"/>
  <unicode hex="0943"/>
  <outline>
    <contour>
      <point x="-107" y="-549" type="line"/>
      <point x="-182" y="-574"/>
      <point x="-262" y="-589"/>
      <point x="-357" y="-589" type="curve" smooth="yes"/>
      <point x="-584" y="-589"/>
      <point x="-783" y="-468"/>
      <point x="-783" y="-257" type="curve" smooth="yes"/>
      <point x="-783" y="-76"/>
      <point x="-623" y="50"/>
      <point x="-381" y="50" type="curve" smooth="yes"/>
      <point x="-313" y="50"/>
      <point x="-263" y="47"/>
      <point x="-189" y="40" type="curve"/>
      <point x="-189" y="-152" type="line"/>
      <point x="-227" y="-152"/>
      <point x="-282" y="-152"/>
      <point x="-322" y="-152" type="curve" smooth="yes"/>
      <point x="-443" y="-152"/>
      <point x="-502" y="-211"/>
      <point x="-502" y="-280" type="curve" smooth="yes"/>
      <point x="-502" y="-336"/>
      <point x="-453" y="-378"/>
      <point x="-364" y="-378" type="curve" smooth="yes"/>
      <point x="-295" y="-378"/>
      <point x="-230" y="-362"/>
      <point x="-143" y="-328" type="curve"/>
    </contour>
    <contour>
      <point x="-539" y="0" type="move" name="_btm"/>
    </contour>
  </outline>
</glyph>
<glyph name="aivowelsigndeva" format="1">
  <advance width="0"/>
  <unicode hex="0948"/>
  <outline>
    <contour>
      <point x="-919" y="1244" type="line"/>
      <point x="-1341" y="1600" type="line"/>
      <point x="-1099" y="1797" type="line"/>
      <point x="-492" y="1244" type="line"/>
    </contour>
    <contour>
      <point x="-507" y="1244" type="line"/>
      <point x="-741" y="1814" type="line"/>
      <point x="-435" y="1900" type="line"/>
      <point x="-196" y="1244" type="line"/>
    </contour>
    <contour>
      <point x="-539" y="1293" type="move" name="_top"/>
    </contour>
  </outline>
</glyph>
<glyph name="viramadeva" format="1">
  <advance width="-1"/>
  <unicode hex="094D"/>
  <outline>
    <contour>
      <point x="-488" y="-50" type="line"/>
      <point x="126" y="-312" type="line"/>
      <point x="25" y="-555" type="line"/>
      <point x="-590" y="-290" type="line"/>
    </contour>
    <contour>
      <point x="-539" y="0" type="move" name="_btm"/>
    </contour>
  </outline>
</glyph>
<glyph name="zerodeva" format="1">
  <advance width="1244"/>
  <unicode hex="0966"/>
  <outline>
    <contour>
      <point x="614" y="1144" type="curve" smooth="yes"/>
      <point x="958" y="1144"/>
      <point x="1167" y="917"/>
      <point x="1167" y="621" type="curve" smooth="yes"/>
      <point x="1167" y="363"/>
      <point x="988" y="132"/>
      <point x="639" y="132" type="curve" smooth="yes"/>
      <point x="300" y="132"/>
      <point x="78" y="370"/>
      <point x="78" y="657" type="curve" smooth="yes"/>
      <point x="78" y="912"/>
      <point x="278" y="1144"/>
    </contour>
    <contour>
      <point x="612" y="420" type="curve" smooth="yes"/>
      <point x="740" y="420"/>
      <point x="839" y="523"/>
      <point x="839" y="652" type="curve" smooth="yes"/>
      <point x="839" y="768"/>
      <point x="767" y="864"/>
      <point x="636" y="864" type="curve" smooth="yes"/>
      <point x="500" y="864"/>
      <point x="415" y="748"/>
      <point x="415" y="623" type="curve" smooth="yes"/>
      <point x="415" y="500"/>
      <point x="497" y="420"/>
    </contour>
  </outline>
</glyph>
<glyph name="twodeva" format="1">
  <advance width="1063"/>
  <unicode hex="0968"/>
  <outline>
    <contour>
      <point x="309" y="449" type="line"/>
      <point x="586" y="562" type="line"/>
      <point x="955" y="-42" type="line"/>
      <point x="677" y="-169" type="line"/>
    </contour>
    <contour>
      <point x="346" y="321" type="curve" smooth="yes"/>
      <point x="157" y="321"/>
      <point x="91" y="384"/>
      <point x="91" y="484" type="curve" smooth="yes"/>
      <point x="91" y="619"/>
      <point x="228" y="783"/>
      <point x="370" y="783" type="curve" smooth="yes"/>
      <point x="456" y="783"/>
      <point x="507" y="735"/>
      <point x="573" y="602" type="curve"/>
      <point x="310" y="606" type="line"/>
      <point x="558" y="655"/>
      <point x="652" y="762"/>
      <point x="652" y="874" type="curve" smooth="yes"/>
      <point x="652" y="968"/>
      <point x="571" y="1034"/>
      <point x="455" y="1034" type="curve" smooth="yes"/>
      <point x="351" y="1034"/>
      <point x="256" y="1012"/>
      <point x="161" y="972" type="curve"/>
      <point x="69" y="1257" type="line"/>
      <point x="177" y="1291"/>
      <point x="294" y="1313"/>
      <point x="467" y="1313" type="curve" smooth="yes"/>
      <point x="817" y="1313"/>
      <point x="994" y="1126"/>
      <point x="994" y="874" type="curve" smooth="yes"/>
      <point x="994" y="554"/>
      <point x="667" y="321"/>
    </contour>
  </outline>
</glyph>
<glyph name="fivedeva" format="1">
  <advance width="1271"/>
  <unicode hex="096B"/>
  <outline>
    <contour>
      <point x="423" y="670" type="curve" smooth="yes"/>
      <point x="423" y="550"/>
      <point x="501" y="474"/>
      <point x="606" y="474" type="curve" smooth="yes"/>
      <point x="694" y="474"/>
      <point x="767" y="508"/>
      <point x="875" y="596" type="curve"/>
      <point x="718" y="429" type="line"/>
      <point x="666" y="516"/>
      <point x="650" y="564"/>
      <point x="650" y="618" type="curve" smooth="yes"/>
      <point x="650" y="691"/>
      <point x="705" y="767"/>
      <point x="858" y="767" type="curve" smooth="yes"/>
      <point x="1062" y="767"/>
      <point x="1190" y="671"/>
      <point x="1190" y="566" type="curve" smooth="yes"/>
      <point x="1190" y="398"/>
      <point x="960" y="205"/>
      <point x="633" y="205" type="curve" smooth="yes"/>
      <point x="314" y="205"/>
      <point x="89" y="428"/>
      <point x="89" y="694" type="curve" smooth="yes"/>
      <point x="89" y="925"/>
      <point x="205" y="1155"/>
      <point x="446" y="1328" type="curve"/>
      <point x="758" y="1167" type="line"/>
      <point x="518" y="992"/>
      <point x="423" y="820"/>
    </contour>
    <contour>
      <point x="721" y="443" type="line"/>
      <point x="1002" y="560" type="line"/>
      <point x="1313" y="-72" type="line"/>
      <point x="1031" y="-190" type="line"/>
    </contour>
  </outline>
</glyph>
<glyph name="ddadevaMAW" format="1">
  <advance width="1309"/>
  <unicode hex="0978"/>
  <outline>
    <contour>
      <point x="-30" y="1065" type="line"/>
      <point x="-30" y="1293" type="line"/>
      <point x="1339" y="1293" type="line"/>
      <point x="1339" y="1065" type="line"/>
    </contour>
    <contour>
      <point x="538" y="785" type="line"/>
      <point x="592" y="801"/>
      <point x="667" y="809"/>
      <point x="745" y="809" type="curve" smooth="yes"/>
      <point x="1018" y="809"/>
      <point x="1197" y="652"/>
      <point x="1197" y="412" type="curve" smooth="yes"/>
      <point x="1197" y="292"/>
      <point x="1148" y="164"/>
      <point x="1081" y="76" type="curve"/>
      <point x="796" y="176" type="line"/>
      <point x="861" y="270"/>
      <point x="898" y="352"/>
      <point x="898" y="432" type="curve" smooth="yes"/>
      <point x="898" y="490"/>
      <point x="859" y="529"/>
      <point x="794" y="529" type="curve" smooth="yes"/>
      <point x="706" y="529"/>
      <point x="610" y="480"/>
      <point x="512" y="376" type="curve"/>
      <point x="562" y="480" type="line"/>
      <point x="562" y="332" type="line"/>
      <point x="562" y="243"/>
      <point x="520" y="191"/>
      <point x="442" y="191" type="curve" smooth="yes"/>
      <point x="360" y="191"/>
      <point x="227" y="248"/>
      <point x="126" y="349" type="curve" smooth="yes"/>
      <point x="63" y="412"/>
      <point x="26" y="487"/>
      <point x="26" y="544" type="curve" smooth="yes"/>
      <point x="26" y="606"/>
      <point x="61" y="647"/>
      <point x="153" y="675" type="curve" smooth="yes"/>
      <point x="251" y="704" type="line"/>
      <point x="215" y="675" type="line"/>
      <point x="215" y="1104" type="line"/>
      <point x="562" y="1104" type="line"/>
      <point x="562" y="671" type="line"/>
    </contour>
    <contour>
      <point x="459" y="3" type="move" name="btm"/>
    </contour>
    <contour>
      <point x="214" y="1293" type="move" name="top"/>
    </contour>
  </outline>
</glyph>
<glyph name="endash.deva" format="1">
  <advance width="1029"/>
  <unicode hex="2013"/>
  <outline>
    <contour>
      <point x="98" y="377" type="line"/>
      <point x="98" y="616" type="line"/>
      <point x="885" y="616" type="line"/>
      <point x="885" y="377" type="line"/>
    </contour>
  </outline>
</glyph>
<glyph name="quoteleft.deva" format="1">
  <advance width="748"/>
  <unicode hex="2018"/>
  <outline>
    <contour>
      <point x="0" y="0" type="line"/>
      <point x="748" y="0" type="line"/>
      <point x="748" y="20" type="line"/>
      <point x="0" y="20" type="line"/>
    </contour>
  </outline>
</glyph>
<glyph name="uni20B9.deva" format="1">
  <advance width="1276"/>
  <unicode hex="20B9"/>
  <outline>
    <contour>
      <point x="130" y="737" type="curve"/>
      <point x="130" y="955" type="line"/>
      <point x="1096" y="955" type="line"/>
      <point x="1096" y="737" type="line"/>
      <point x="1096" y="737"/>
      <point x="130" y="737"/>
    </contour>
    <contour>
      <point x="130" y="1076" type="curve"/>
      <point x="130" y="1294" type="line"/>
      <point x="1096" y="1294" type="line"/>
      <point x="1096" y="1076" type="line"/>
      <point x="1096" y="1076"/>
      <point x="130" y="1076"/>
    </contour>
    <contour>
      <point x="166" y="479" type="line"/>
      <point x="169" y="566" type="line"/>
      <point x="449" y="580"/>
      <point x="569" y="708"/>
      <point x="569" y="851" type="curve" smooth="yes"/>
      <point x="569" y="988"/>
      <point x="468" y="1077"/>
      <point x="336" y="1077" type="curve" smooth="yes"/>
      <point x="316" y="1077" type="line"/>
      <point x="316" y="1077"/>
      <point x="319" y="1254"/>
      <point x="319" y="1254" type="curve"/>
      <point x="411" y="1254" type="line" smooth="yes"/>
      <point x="726" y="1254"/>
      <point x="912" y="1057"/>
      <point x="912" y="833" type="curve" smooth="yes"/>
      <point x="912" y="609"/>
      <point x="765" y="467"/>
      <point x="530" y="383" type="curve"/>
      <point x="530" y="482" type="line"/>
      <point x="937" y="17" type="line"/>
      <point x="938" y="0" type="line"/>
      <point x="575" y="0" type="line"/>
    </contour>
  </outline>
</glyph>
<glyph name="minus.deva" format="1">
  <advance width="1044"/>
  <unicode hex="2212"/>
  <outline>
    <contour>
      <point x="67" y="534" type="line"/>
      <point x="67" y="765" type="line"/>
      <point x="975" y="765" type="line"/>
      <point x="975" y="534" type="line"/>
    </contour>
  </outline>
</glyph>
<glyph name="bhaprehalfdeva" format="1">
  <advance width="999"/>
  <outline>
    <contour>
      <point x="443" y="693" type="line"/>
      <point x="407" y="663" type="line"/>
      <point x="407" y="994" type="line"/>
      <point x="407" y="1089"/>
      <point x="358" y="1141"/>
      <point x="293" y="1141" type="curve" smooth="yes"/>
      <point x="243" y="1141"/>
      <point x="211" y="1106"/>
      <point x="211" y="1062" type="curve" smooth="yes"/>
      <point x="211" y="1004"/>
      <point x="261" y="956"/>
      <point x="421" y="955" type="curve"/>
      <point x="424" y="755" type="line"/>
      <point x="73" y="756"/>
      <point x="-84" y="912"/>
      <point x="-84" y="1104" type="curve" smooth="yes"/>
      <point x="-84" y="1245"/>
      <point x="17" y="1379"/>
      <point x="258" y="1379" type="curve" smooth="yes"/>
      <point x="527" y="1379"/>
      <point x="727" y="1205"/>
      <point x="727" y="949" type="curve" smooth="yes"/>
      <point x="727" y="650" type="line"/>
      <point x="694" y="693" type="line"/>
      <point x="1237" y="693" type="line"/>
      <point x="1257" y="410" type="line"/>
      <point x="677" y="410" type="line"/>
      <point x="727" y="459" type="line"/>
      <point x="727" y="329" type="line"/>
      <point x="727" y="240"/>
      <point x="694" y="187"/>
      <point x="606" y="187" type="curve" smooth="yes"/>
      <point x="524" y="187"/>
      <point x="410" y="239"/>
      <point x="331" y="318" type="curve" smooth="yes"/>
      <point x="261" y="387"/>
      <point x="207" y="486"/>
      <point x="207" y="572" type="curve" smooth="yes"/>
      <point x="207" y="643"/>
      <point x="251" y="693"/>
      <point x="337" y="693" type="curve" smooth="yes"/>
    </contour>
  </outline>
</glyph>
<glyph name="dabadeva" format="1">
  <advance width="1248"/>
  <outline>
    <contour>
      <point x="758" y="-197" type="line"/>
      <point x="633" y="-290" type="line"/>
      <point x="331" y="55" type="line"/>
      <point x="456" y="148" type="line"/>
    </contour>
    <contour>
      <point x="-30" y="1065" type="line"/>
      <point x="-30" y="1293" type="line"/>
      <point x="1278" y="1293" type="line"/>
      <point x="1278" y="1065" type="line"/>
    </contour>
    <contour>
      <point x="678" y="162" type="line"/>
      <point x="940" y="247" type="line"/>
      <point x="1226" y="-289" type="line"/>
      <point x="975" y="-398" type="line"/>
    </contour>
    <contour>
      <point x="670" y="51" type="curve" smooth="yes"/>
      <point x="317" y="51"/>
      <point x="69" y="240"/>
      <point x="69" y="511" type="curve" smooth="yes"/>
      <point x="69" y="737"/>
      <point x="222" y="908"/>
      <point x="578" y="908" type="curve" smooth="yes"/>
      <point x="771" y="908" type="line"/>
      <point x="701" y="852" type="line"/>
      <point x="701" y="1096" type="line"/>
      <point x="1050" y="1096" type="line"/>
      <point x="1050" y="665" type="line"/>
      <point x="672" y="665" type="line"/>
      <point x="473" y="665"/>
      <point x="392" y="588"/>
      <point x="392" y="471" type="curve" smooth="yes"/>
      <point x="392" y="366"/>
      <point x="484" y="292"/>
      <point x="608" y="292" type="curve" smooth="yes"/>
      <point x="700" y="292"/>
      <point x="746" y="294"/>
      <point x="863" y="319" type="curve"/>
      <point x="661" y="206" type="line"/>
      <point x="626" y="258"/>
      <point x="616" y="320"/>
      <point x="616" y="369" type="curve" smooth="yes"/>
      <point x="616" y="435"/>
      <point x="657" y="510"/>
      <point x="803" y="510" type="curve" smooth="yes"/>
      <point x="1000" y="510"/>
      <point x="1151" y="411"/>
      <point x="1151" y="291" type="curve" smooth="yes"/>
      <point x="1151" y="169"/>
      <point x="989" y="51"/>
    </contour>
    <contour>
      <point x="539" y="89" type="line"/>
      <point x="417" y="43"/>
      <point x="357" y="-34"/>
      <point x="360" y="-111" type="curve" smooth="yes"/>
      <point x="362" y="-169"/>
      <point x="411" y="-213"/>
      <point x="473" y="-213" type="curve" smooth="yes"/>
      <point x="619" y="-213"/>
      <point x="739" y="-40"/>
      <point x="704" y="187" type="curve"/>
      <point x="911" y="-197" type="line"/>
      <point x="810" y="-353"/>
      <point x="660" y="-445"/>
      <point x="471" y="-445" type="curve" smooth="yes"/>
      <point x="233" y="-445"/>
      <point x="94" y="-269"/>
      <point x="94" y="-105" type="curve" smooth="yes"/>
      <point x="94" y="44"/>
      <point x="176" y="184"/>
      <point x="348" y="280" type="curve"/>
    </contour>
    <contour>
      <point x="658" y="-490" type="move" name="btm"/>
    </contour>
    <contour>
      <point x="652" y="1293" type="move" name="top"/>
    </contour>
  </outline>
</glyph>
<glyph name="dadhayadeva" format="1">
  <advance width="2254"/>
  <outline>
    <contour>
      <point x="1714" y="1104" type="line"/>
      <point x="2063" y="1104" type="line"/>
      <point x="2063" y="-492" type="line"/>
      <point x="1714" y="-492" type="line"/>
    </contour>
    <contour>
      <point x="1198" y="171" type="line"/>
      <point x="1269" y="30"/>
      <point x="1356" y="-20"/>
      <point x="1465" y="-20" type="curve" smooth="yes"/>
      <point x="1583" y="-20"/>
      <point x="1704" y="44"/>
      <point x="1761" y="184" type="curve"/>
      <point x="1761" y="-276" type="line"/>
      <point x="1704" y="-296"/>
      <point x="1644" y="-308"/>
      <point x="1567" y="-308" type="curve" smooth="yes"/>
      <point x="1362" y="-308"/>
      <point x="1124" y="-233"/>
      <point x="981" y="135" type="curve"/>
    </contour>
    <contour>
      <point x="-30" y="1065" type="line"/>
      <point x="-30" y="1293" type="line"/>
      <point x="2284" y="1293" type="line"/>
      <point x="2284" y="1065" type="line"/>
    </contour>
    <contour>
      <point x="567" y="-47" type="line"/>
      <point x="509" y="-71"/>
      <point x="447" y="-84"/>
      <point x="336" y="-84" type="curve" smooth="yes"/>
      <point x="108" y="-84"/>
      <point x="-37" y="53"/>
      <point x="-37" y="243" type="curve" smooth="yes"/>
      <point x="-37" y="348"/>
      <point x="3" y="453"/>
      <point x="74" y="551" type="curve"/>
      <point x="310" y="406" type="line"/>
      <point x="272" y="356"/>
      <point x="252" y="295"/>
      <point x="252" y="242" type="curve" smooth="yes"/>
      <point x="252" y="179"/>
      <point x="298" y="128"/>
      <point x="387" y="128" type="curve" smooth="yes"/>
      <point x="464" y="128"/>
      <point x="533" y="148"/>
      <point x="599" y="192" type="curve"/>
    </contour>
    <contour>
      <point x="975" y="51" type="curve" smooth="yes"/>
      <point x="622" y="51"/>
      <point x="374" y="240"/>
      <point x="374" y="511" type="curve" smooth="yes"/>
      <point x="374" y="737"/>
      <point x="527" y="908"/>
      <point x="883" y="908" type="curve" smooth="yes"/>
      <point x="1076" y="908" type="line"/>
      <point x="1007" y="852" type="line"/>
      <point x="1007" y="1096" type="line"/>
      <point x="1356" y="1096" type="line"/>
      <point x="1356" y="665" type="line"/>
      <point x="978" y="665" type="line"/>
      <point x="778" y="665"/>
      <point x="698" y="588"/>
      <point x="698" y="471" type="curve" smooth="yes"/>
      <point x="698" y="366"/>
      <point x="789" y="292"/>
      <point x="913" y="292" type="curve" smooth="yes"/>
      <point x="1006" y="292"/>
      <point x="1052" y="294"/>
      <point x="1168" y="319" type="curve"/>
      <point x="974" y="209" type="line"/>
      <point x="938" y="263"/>
      <point x="921" y="320"/>
      <point x="921" y="369" type="curve" smooth="yes"/>
      <point x="921" y="435"/>
      <point x="962" y="510"/>
      <point x="1108" y="510" type="curve" smooth="yes"/>
      <point x="1305" y="510"/>
      <point x="1456" y="411"/>
      <point x="1456" y="291" type="curve" smooth="yes"/>
      <point x="1456" y="169"/>
      <point x="1294" y="51"/>
    </contour>
    <contour>
      <point x="865" y="65" type="line"/>
      <point x="739" y="20"/>
      <point x="696" y="-67"/>
      <point x="695" y="-117" type="curve" smooth="yes"/>
      <point x="695" y="-165"/>
      <point x="725" y="-200"/>
      <point x="784" y="-200" type="curve" smooth="yes"/>
      <point x="911" y="-200"/>
      <point x="1033" y="-39"/>
      <point x="1010" y="188" type="curve"/>
      <point x="1216" y="-197" type="line"/>
      <point x="1116" y="-352"/>
      <point x="973" y="-443"/>
      <point x="783" y="-443" type="curve" smooth="yes"/>
      <point x="556" y="-443"/>
      <point x="433" y="-283"/>
      <point x="433" y="-126" type="curve" smooth="yes"/>
      <point x="433" y="-13"/>
      <point x="478" y="130"/>
      <point x="670" y="245" type="curve"/>
    </contour>
    <contour>
      <point x="1714" y="-492" type="move" name="btm"/>
    </contour>
    <contour>
      <point x="1714" y="1293" type="move" name="top"/>
    </contour>
  </outline>
</glyph>
<glyph name="damadeva" format="1">
  <advance width="1751"/>
  <outline>
    <contour>
      <point x="1211" y="1104" type="line"/>
      <point x="1559" y="1104" type="line"/>
      <point x="1559" y="-83" type="line"/>
      <point x="1211" y="-83" type="line"/>
    </contour>
    <contour>
      <point x="1259" y="439" type="line"/>
      <point x="1259" y="156" type="line"/>
      <point x="930" y="156" type="line"/>
      <point x="980" y="205" type="line"/>
      <point x="980" y="62" type="line"/>
      <point x="980" y="-27"/>
      <point x="945" y="-88"/>
      <point x="867" y="-88" type="curve" smooth="yes"/>
      <point x="811" y="-88"/>
      <point x="750" y="-51"/>
      <point x="696" y="3" type="curve" smooth="yes"/>
      <point x="613" y="86"/>
      <point x="549" y="207"/>
      <point x="549" y="286" type="curve" smooth="yes"/>
      <point x="549" y="388"/>
      <point x="625" y="439"/>
      <point x="718" y="439" type="curve" smooth="yes"/>
    </contour>
    <contour>
      <point x="1781" y="1065" type="line"/>
      <point x="-30" y="1065" type="line"/>
      <point x="-30" y="1293" type="line"/>
      <point x="1781" y="1293" type="line"/>
    </contour>
    <contour>
      <point x="583" y="1086" type="line"/>
      <point x="931" y="1086" type="line"/>
      <point x="931" y="730" type="line"/>
      <point x="512" y="730" type="line"/>
      <point x="435" y="730"/>
      <point x="406" y="702"/>
      <point x="406" y="664" type="curve" smooth="yes"/>
      <point x="406" y="625"/>
      <point x="445" y="605"/>
      <point x="499" y="605" type="curve" smooth="yes"/>
      <point x="601" y="605" type="line"/>
      <point x="865" y="605"/>
      <point x="973" y="490"/>
      <point x="978" y="341" type="curve" smooth="yes"/>
      <point x="981" y="255" type="line"/>
      <point x="659" y="246" type="line"/>
      <point x="659" y="309" type="line"/>
      <point x="659" y="345"/>
      <point x="626" y="366"/>
      <point x="575" y="366" type="curve" smooth="yes"/>
      <point x="513" y="366" type="line"/>
      <point x="237" y="366"/>
      <point x="51" y="518"/>
      <point x="51" y="709" type="curve" smooth="yes"/>
      <point x="51" y="853"/>
      <point x="162" y="965"/>
      <point x="395" y="965" type="curve" smooth="yes"/>
      <point x="650" y="965" type="line"/>
      <point x="583" y="899" type="line"/>
    </contour>
    <contour>
      <point x="1211" y="-83" type="move" name="btm"/>
    </contour>
    <contour>
      <point x="1211" y="1293" type="move" name="top"/>
    </contour>
  </outline>
</glyph>
<glyph name="davadeva" format="1">
  <advance width="1248"/>
  <outline>
    <contour>
      <point x="540" y="89" type="line"/>
      <point x="417" y="42"/>
      <point x="370" y="-52"/>
      <point x="372" y="-110" type="curve" smooth="yes"/>
      <point x="375" y="-170"/>
      <point x="409" y="-200"/>
      <point x="474" y="-200" type="curve" smooth="yes"/>
      <point x="601" y="-200"/>
      <point x="727" y="-40"/>
      <point x="704" y="187" type="curve"/>
      <point x="911" y="-197" type="line"/>
      <point x="810" y="-353"/>
      <point x="660" y="-445"/>
      <point x="471" y="-445" type="curve" smooth="yes"/>
      <point x="233" y="-445"/>
      <point x="94" y="-269"/>
      <point x="94" y="-105" type="curve" smooth="yes"/>
      <point x="94" y="44"/>
      <point x="176" y="184"/>
      <point x="348" y="280" type="curve"/>
    </contour>
    <contour>
      <point x="-30" y="1065" type="line"/>
      <point x="-30" y="1293" type="line"/>
      <point x="1278" y="1293" type="line"/>
      <point x="1278" y="1065" type="line"/>
    </contour>
    <contour>
      <point x="677" y="162" type="line"/>
      <point x="939" y="247" type="line"/>
      <point x="1225" y="-289" type="line"/>
      <point x="974" y="-398" type="line"/>
    </contour>
    <contour>
      <point x="669" y="51" type="curve" smooth="yes"/>
      <point x="316" y="51"/>
      <point x="68" y="240"/>
      <point x="68" y="511" type="curve" smooth="yes"/>
      <point x="68" y="737"/>
      <point x="221" y="908"/>
      <point x="577" y="908" type="curve" smooth="yes"/>
      <point x="771" y="908" type="line"/>
      <point x="701" y="852" type="line"/>
      <point x="701" y="1096" type="line"/>
      <point x="1050" y="1096" type="line"/>
      <point x="1050" y="665" type="line"/>
      <point x="672" y="665" type="line"/>
      <point x="472" y="665"/>
      <point x="391" y="588"/>
      <point x="391" y="471" type="curve" smooth="yes"/>
      <point x="391" y="366"/>
      <point x="483" y="292"/>
      <point x="607" y="292" type="curve" smooth="yes"/>
      <point x="700" y="292"/>
      <point x="746" y="294"/>
      <point x="862" y="319" type="curve"/>
      <point x="660" y="206" type="line"/>
      <point x="625" y="258"/>
      <point x="615" y="320"/>
      <point x="615" y="369" type="curve" smooth="yes"/>
      <point x="615" y="435"/>
      <point x="656" y="510"/>
      <point x="802" y="510" type="curve" smooth="yes"/>
      <point x="999" y="510"/>
      <point x="1150" y="411"/>
      <point x="1150" y="291" type="curve" smooth="yes"/>
      <point x="1150" y="169"/>
      <point x="988" y="51"/>
    </contour>
    <contour>
      <point x="658" y="-490" type="move" name="btm"/>
    </contour>
    <contour>
      <point x="652" y="1293" type="move" name="top"/>
    </contour>
  </outline>
</glyph>
<glyph name="dayaprehalfdeva" format="1">
  <advance width="1072"/>
  <outline>
    <contour>
      <point x="442" y="1105" type="line"/>
      <point x="790" y="1105" type="line"/>
      <point x="790" y="850" type="line"/>
      <point x="442" y="850" type="line"/>
    </contour>
    <contour>
      <point x="433" y="324" type="line"/>
      <point x="151" y="407"/>
      <point x="28" y="544"/>
      <point x="28" y="696" type="curve" smooth="yes"/>
      <point x="28" y="845"/>
      <point x="147" y="946"/>
      <point x="384" y="946" type="curve" smooth="yes"/>
      <point x="497" y="946"/>
      <point x="703" y="946"/>
      <point x="790" y="946" type="curve"/>
      <point x="790" y="741" type="line"/>
      <point x="730" y="741"/>
      <point x="577" y="741"/>
      <point x="533" y="741" type="curve"/>
      <point x="420" y="741"/>
      <point x="371" y="701"/>
      <point x="371" y="647" type="curve" smooth="yes"/>
      <point x="371" y="592"/>
      <point x="449" y="546"/>
      <point x="589" y="532" type="curve"/>
    </contour>
    <contour>
      <point x="1102" y="1065" type="line"/>
      <point x="-30" y="1065" type="line"/>
      <point x="-30" y="1293" type="line"/>
      <point x="1102" y="1293" type="line"/>
    </contour>
    <contour>
      <point x="363" y="338" type="curve" smooth="yes"/>
      <point x="363" y="506"/>
      <point x="500" y="641"/>
      <point x="870" y="641" type="curve" smooth="yes"/>
      <point x="876" y="641" type="line"/>
      <point x="953" y="405" type="line"/>
      <point x="942" y="405" type="line"/>
      <point x="769" y="405"/>
      <point x="696" y="356"/>
      <point x="696" y="301" type="curve" smooth="yes"/>
      <point x="696" y="258"/>
      <point x="733" y="225"/>
      <point x="806" y="225" type="curve" smooth="yes"/>
      <point x="972" y="225"/>
      <point x="1122" y="338"/>
      <point x="1269" y="667" type="curve"/>
      <point x="1477" y="436" type="line"/>
      <point x="1351" y="197"/>
      <point x="1137" y="-19"/>
      <point x="817" y="-19" type="curve" smooth="yes"/>
      <point x="532" y="-19"/>
      <point x="363" y="144"/>
    </contour>
  </outline>
</glyph>
<glyph name="eightdevaNEP" format="1">
  <advance width="1254"/>
  <outline>
    <contour>
      <point x="38" y="1043" type="line"/>
      <point x="38" y="1271" type="line"/>
      <point x="1195" y="1271" type="line"/>
      <point x="1195" y="1043" type="line"/>
    </contour>
    <contour>
      <point x="522" y="201" type="curve" smooth="yes"/>
      <point x="326" y="201"/>
      <point x="139" y="345"/>
      <point x="139" y="631" type="curve" smooth="yes"/>
      <point x="139" y="811"/>
      <point x="189" y="999"/>
      <point x="305" y="1176" type="curve"/>
      <point x="628" y="1063" type="line"/>
      <point x="505" y="905"/>
      <point x="454" y="765"/>
      <point x="454" y="639" type="curve" smooth="yes"/>
      <point x="454" y="545"/>
      <point x="508" y="482"/>
      <point x="576" y="482" type="curve" smooth="yes"/>
      <point x="678" y="482"/>
      <point x="772" y="504"/>
      <point x="909" y="504" type="curve" smooth="yes"/>
      <point x="1115" y="504"/>
      <point x="1246" y="364"/>
      <point x="1246" y="193" type="curve" smooth="yes"/>
      <point x="1246" y="80"/>
      <point x="1212" y="-8"/>
      <point x="1147" y="-113" type="curve"/>
      <point x="835" y="-41" type="line"/>
      <point x="889" y="27"/>
      <point x="933" y="100"/>
      <point x="933" y="160" type="curve" smooth="yes"/>
      <point x="933" y="208"/>
      <point x="903" y="233"/>
      <point x="848" y="234" type="curve" smooth="yes"/>
      <point x="775" y="235"/>
      <point x="648" y="201"/>
    </contour>
  </outline>
</glyph>
<glyph name="eshortvowelsignrephanusdeva" format="1">
  <advance width="0"/>
  <outline>
    <contour>
      <point x="-433" y="1244" type="line"/>
      <point x="-485" y="1311"/>
      <point x="-526" y="1407"/>
      <point x="-526" y="1503" type="curve" smooth="yes"/>
      <point x="-526" y="1667"/>
      <point x="-377" y="1822"/>
      <point x="-114" y="1822" type="curve" smooth="yes"/>
      <point x="-51" y="1822"/>
      <point x="2" y="1814"/>
      <point x="54" y="1801" type="curve"/>
      <point x="43" y="1627" type="line"/>
      <point x="21" y="1630"/>
      <point x="-8" y="1632"/>
      <point x="-49" y="1632" type="curve" smooth="yes"/>
      <point x="-161" y="1632"/>
      <point x="-233" y="1556"/>
      <point x="-233" y="1435" type="curve" smooth="yes"/>
      <point x="-233" y="1372"/>
      <point x="-233" y="1325"/>
      <point x="-233" y="1244" type="curve"/>
    </contour>
    <contour>
      <point x="-29" y="1561" type="curve" smooth="yes"/>
      <point x="64" y="1561"/>
      <point x="104" y="1503"/>
      <point x="104" y="1451" type="curve" smooth="yes"/>
      <point x="104" y="1402"/>
      <point x="64" y="1342"/>
      <point x="-29" y="1342" type="curve" smooth="yes"/>
      <point x="-115" y="1342"/>
      <point x="-161" y="1399"/>
      <point x="-161" y="1451" type="curve" smooth="yes"/>
      <point x="-161" y="1504"/>
      <point x="-116" y="1561"/>
    </contour>
    <component base="eshortvowelsigndeva"/>
    <contour>
      <point x="-539" y="1293" type="move" name="_top"/>
    </contour>
  </outline>
</glyph>
<glyph name="gaprehalfdeva" format="1">
  <advance width="818"/>
  <outline>
    <contour>
      <point x="848" y="1065" type="line"/>
      <point x="-30" y="1065" type="line"/>
      <point x="-30" y="1293" type="line"/>
      <point x="848" y="1293" type="line"/>
    </contour>
    <contour>
      <point x="642" y="1096" type="line"/>
      <point x="642" y="416" type="line"/>
      <point x="642" y="314"/>
      <point x="604" y="256"/>
      <point x="507" y="256" type="curve" smooth="yes"/>
      <point x="298" y="256"/>
      <point x="68" y="474"/>
      <point x="68" y="605" type="curve" smooth="yes"/>
      <point x="68" y="668"/>
      <point x="106" y="715"/>
      <point x="195" y="715" type="curve" smooth="yes"/>
      <point x="340" y="715" type="line"/>
      <point x="294" y="673" type="line"/>
      <point x="294" y="1096" type="line"/>
    </contour>
  </outline>
</glyph>
<glyph name="garaprehalfdeva" format="1">
  <advance width="818"/>
  <outline>
    <contour>
      <point x="848" y="1065" type="line"/>
      <point x="-30" y="1065" type="line"/>
      <point x="-30" y="1293" type="line"/>
      <point x="848" y="1293" type="line"/>
    </contour>
    <contour>
      <point x="1248" y="290" type="line"/>
      <point x="561" y="-119" type="line"/>
      <point x="401" y="120" type="line"/>
      <point x="1079" y="532" type="line"/>
    </contour>
    <contour>
      <point x="642" y="1096" type="line"/>
      <point x="642" y="490" type="line"/>
      <point x="642" y="388"/>
      <point x="604" y="330"/>
      <point x="507" y="330" type="curve" smooth="yes"/>
      <point x="298" y="330"/>
      <point x="68" y="548"/>
      <point x="68" y="679" type="curve" smooth="yes"/>
      <point x="68" y="742"/>
      <point x="106" y="789"/>
      <point x="195" y="789" type="curve" smooth="yes"/>
      <point x="340" y="789" type="line"/>
      <point x="294" y="747" type="line"/>
      <point x="294" y="1096" type="line"/>
    </contour>
  </outline>
</glyph>
<glyph name="ghaprehalfdeva" format="1">
  <advance width="969"/>
  <outline>
    <contour>
      <point x="831" y="637" type="line"/>
      <point x="820" y="636" type="line"/>
      <point x="659" y="623"/>
      <point x="601" y="561"/>
      <point x="601" y="502" type="curve" smooth="yes"/>
      <point x="601" y="451"/>
      <point x="650" y="414"/>
      <point x="721" y="414" type="curve" smooth="yes"/>
      <point x="868" y="414"/>
      <point x="1025" y="506"/>
      <point x="1146" y="663" type="curve"/>
      <point x="1317" y="410" type="line"/>
      <point x="1162" y="233"/>
      <point x="988" y="134"/>
      <point x="760" y="134" type="curve" smooth="yes"/>
      <point x="459" y="134"/>
      <point x="286" y="325"/>
      <point x="286" y="540" type="curve" smooth="yes"/>
      <point x="286" y="715"/>
      <point x="412" y="910"/>
      <point x="738" y="910" type="curve" smooth="yes"/>
      <point x="744" y="910" type="line"/>
    </contour>
    <contour>
      <point x="375" y="680" type="line"/>
      <point x="160" y="740"/>
      <point x="60" y="868"/>
      <point x="60" y="1024" type="curve" smooth="yes"/>
      <point x="60" y="1095"/>
      <point x="80" y="1161"/>
      <point x="134" y="1211" type="curve"/>
      <point x="470" y="1136" type="line"/>
      <point x="430" y="1096"/>
      <point x="415" y="1049"/>
      <point x="415" y="998" type="curve" smooth="yes"/>
      <point x="415" y="935"/>
      <point x="459" y="858"/>
      <point x="622" y="858" type="curve"/>
    </contour>
    <contour>
      <point x="-30" y="1065" type="line"/>
      <point x="-30" y="1293" type="line"/>
      <point x="999" y="1293" type="line"/>
      <point x="999" y="1065" type="line"/>
    </contour>
  </outline>
</glyph>
<glyph name="haladeva" format="1">
  <advance width="1754"/>
  <outline>
    <contour>
      <point x="1353" y="281" type="line"/>
      <point x="1353" y="20" type="line"/>
      <point x="1097" y="-202" type="line"/>
      <point x="946" y="-52" type="line"/>
    </contour>
    <contour>
      <point x="1231" y="62" type="curve"/>
      <point x="1099" y="-46" type="line"/>
      <point x="1053" y="26"/>
      <point x="1015" y="56"/>
      <point x="958" y="56" type="curve" smooth="yes"/>
      <point x="897" y="56"/>
      <point x="849" y="13"/>
      <point x="849" y="-42" type="curve" smooth="yes"/>
      <point x="849" y="-102"/>
      <point x="881" y="-141"/>
      <point x="943" y="-205" type="curve"/>
      <point x="790" y="-273" type="line"/>
      <point x="697" y="-192"/>
      <point x="631" y="-88"/>
      <point x="631" y="7" type="curve" smooth="yes"/>
      <point x="631" y="133"/>
      <point x="717" y="235"/>
      <point x="894" y="235" type="curve" smooth="yes"/>
      <point x="1037" y="235"/>
      <point x="1114" y="184"/>
    </contour>
    <contour>
      <point x="1784" y="1065" type="line"/>
      <point x="-30" y="1065" type="line"/>
      <point x="-30" y="1293" type="line"/>
      <point x="1784" y="1293" type="line"/>
    </contour>
    <contour>
      <point x="1218" y="1077" type="line"/>
      <point x="1565" y="1077" type="line"/>
      <point x="1565" y="707" type="line"/>
      <point x="521" y="707" type="line"/>
      <point x="424" y="707"/>
      <point x="385" y="668"/>
      <point x="385" y="616" type="curve" smooth="yes"/>
      <point x="385" y="563"/>
      <point x="431" y="531"/>
      <point x="526" y="509" type="curve"/>
      <point x="295" y="340" type="line"/>
      <point x="127" y="441"/>
      <point x="48" y="552"/>
      <point x="48" y="686" type="curve" smooth="yes"/>
      <point x="48" y="824"/>
      <point x="158" y="935"/>
      <point x="380" y="935" type="curve" smooth="yes"/>
      <point x="1257" y="935" type="line"/>
      <point x="1218" y="883" type="line"/>
    </contour>
    <contour>
      <point x="844" y="334" type="curve" smooth="yes"/>
      <point x="530" y="334"/>
      <point x="424" y="183"/>
      <point x="424" y="39" type="curve" smooth="yes"/>
      <point x="424" y="-88"/>
      <point x="489" y="-198"/>
      <point x="740" y="-404" type="curve"/>
      <point x="544" y="-551" type="line"/>
      <point x="244" y="-327"/>
      <point x="135" y="-109"/>
      <point x="135" y="105" type="curve" smooth="yes"/>
      <point x="135" y="315"/>
      <point x="298" y="588"/>
      <point x="832" y="588" type="curve" smooth="yes"/>
      <point x="1346" y="588"/>
      <point x="1607" y="388"/>
      <point x="1607" y="81" type="curve" smooth="yes"/>
      <point x="1607" y="-354" type="line"/>
      <point x="1304" y="-354" type="line"/>
      <point x="1304" y="91" type="line"/>
      <point x="1304" y="245"/>
      <point x="1183" y="334"/>
    </contour>
    <contour>
      <point x="1304" y="-354" type="move" name="btm"/>
    </contour>
    <contour>
      <point x="1218" y="1293" type="move" name="top"/>
    </contour>
  </outline>
</glyph>
<glyph name="haprehalfdeva" format="1">
  <advance width="959"/>
  <outline>
    <contour>
      <point x="478" y="1077" type="line"/>
      <point x="826" y="1077" type="line"/>
      <point x="826" y="707" type="line"/>
      <point x="521" y="707" type="line"/>
      <point x="423" y="707"/>
      <point x="384" y="668"/>
      <point x="384" y="616" type="curve" smooth="yes"/>
      <point x="384" y="563"/>
      <point x="431" y="531"/>
      <point x="526" y="509" type="curve"/>
      <point x="295" y="340" type="line"/>
      <point x="127" y="440"/>
      <point x="48" y="552"/>
      <point x="48" y="687" type="curve" smooth="yes"/>
      <point x="48" y="824"/>
      <point x="157" y="935"/>
      <point x="380" y="935" type="curve" smooth="yes"/>
      <point x="517" y="935" type="line"/>
      <point x="478" y="883" type="line"/>
    </contour>
    <contour>
      <point x="708" y="572" type="curve" smooth="yes"/>
      <point x="1261" y="572" type="line"/>
      <point x="1289" y="319" type="line"/>
      <point x="725" y="319" type="line"/>
      <point x="554" y="319"/>
      <point x="488" y="237"/>
      <point x="488" y="140" type="curve" smooth="yes"/>
      <point x="488" y="13"/>
      <point x="589" y="-76"/>
      <point x="1053" y="-134" type="curve"/>
      <point x="964" y="-363" type="line"/>
      <point x="402" y="-296"/>
      <point x="162" y="-104"/>
      <point x="162" y="180" type="curve" smooth="yes"/>
      <point x="162" y="382"/>
      <point x="326" y="572"/>
    </contour>
    <contour>
      <point x="989" y="1065" type="line"/>
      <point x="-30" y="1065" type="line"/>
      <point x="-30" y="1293" type="line"/>
      <point x="989" y="1293" type="line"/>
    </contour>
  </outline>
</glyph>
<glyph name="haraudeva" format="1">
  <advance width="1345"/>
  <outline>
    <contour>
      <point x="971" y="383" type="line"/>
      <point x="823" y="15" type="line"/>
      <point x="575" y="87" type="line"/>
      <point x="716" y="458" type="line"/>
    </contour>
    <contour>
      <point x="1375" y="1065" type="line"/>
      <point x="-30" y="1065" type="line"/>
      <point x="-30" y="1293" type="line"/>
      <point x="1375" y="1293" type="line"/>
    </contour>
    <contour>
      <point x="810" y="1077" type="line"/>
      <point x="1158" y="1077" type="line"/>
      <point x="1158" y="707" type="line"/>
      <point x="521" y="707" type="line"/>
      <point x="425" y="707"/>
      <point x="385" y="668"/>
      <point x="385" y="616" type="curve" smooth="yes"/>
      <point x="385" y="564"/>
      <point x="431" y="531"/>
      <point x="526" y="509" type="curve"/>
      <point x="295" y="340" type="line"/>
      <point x="127" y="440"/>
      <point x="48" y="552"/>
      <point x="48" y="687" type="curve" smooth="yes"/>
      <point x="48" y="824"/>
      <point x="158" y="935"/>
      <point x="381" y="935" type="curve" smooth="yes"/>
      <point x="849" y="935" type="line"/>
      <point x="810" y="883" type="line"/>
    </contour>
    <contour>
      <point x="720" y="582" type="curve" smooth="yes"/>
      <point x="1065" y="582"/>
      <point x="1264" y="421"/>
      <point x="1264" y="227" type="curve" smooth="yes"/>
      <point x="1264" y="146"/>
      <point x="1251" y="94"/>
      <point x="1219" y="19" type="curve"/>
      <point x="951" y="67" type="line"/>
      <point x="973" y="112"/>
      <point x="985" y="160"/>
      <point x="985" y="209" type="curve" smooth="yes"/>
      <point x="985" y="296"/>
      <point x="929" y="358"/>
      <point x="757" y="358" type="curve" smooth="yes"/>
      <point x="562" y="358"/>
      <point x="479" y="248"/>
      <point x="479" y="140" type="curve" smooth="yes"/>
      <point x="479" y="3"/>
      <point x="589" y="-64"/>
      <point x="921" y="-115" type="curve"/>
      <point x="831" y="-342" type="line"/>
      <point x="402" y="-271"/>
      <point x="162" y="-104"/>
      <point x="162" y="177" type="curve" smooth="yes"/>
      <point x="162" y="404"/>
      <point x="356" y="582"/>
    </contour>
    <component base="uvowelsigndeva" xOffset="1229" yOffset="-152"/>
  </outline>
</glyph>
<glyph name="harauudeva" format="1">
  <advance width="1345"/>
  <outline>
    <contour>
      <point x="971" y="383" type="line"/>
      <point x="823" y="15" type="line"/>
      <point x="575" y="87" type="line"/>
      <point x="716" y="458" type="line"/>
    </contour>
    <contour>
      <point x="720" y="582" type="curve" smooth="yes"/>
      <point x="1065" y="582"/>
      <point x="1264" y="421"/>
      <point x="1264" y="227" type="curve" smooth="yes"/>
      <point x="1264" y="146"/>
      <point x="1251" y="94"/>
      <point x="1219" y="19" type="curve"/>
      <point x="951" y="67" type="line"/>
      <point x="973" y="112"/>
      <point x="985" y="160"/>
      <point x="985" y="209" type="curve" smooth="yes"/>
      <point x="985" y="296"/>
      <point x="929" y="358"/>
      <point x="757" y="358" type="curve" smooth="yes"/>
      <point x="562" y="358"/>
      <point x="479" y="248"/>
      <point x="479" y="140" type="curve" smooth="yes"/>
      <point x="479" y="3"/>
      <point x="594" y="-60"/>
      <point x="842" y="-102" type="curve"/>
      <point x="747" y="-327" type="line"/>
      <point x="411" y="-261"/>
      <point x="162" y="-103"/>
      <point x="162" y="177" type="curve" smooth="yes"/>
      <point x="162" y="404"/>
      <point x="356" y="582"/>
    </contour>
    <contour>
      <point x="810" y="1077" type="line"/>
      <point x="1158" y="1077" type="line"/>
      <point x="1158" y="707" type="line"/>
      <point x="521" y="707" type="line"/>
      <point x="425" y="707"/>
      <point x="385" y="668"/>
      <point x="385" y="616" type="curve" smooth="yes"/>
      <point x="385" y="564"/>
      <point x="431" y="531"/>
      <point x="526" y="509" type="curve"/>
      <point x="295" y="340" type="line"/>
      <point x="127" y="440"/>
      <point x="48" y="552"/>
      <point x="48" y="687" type="curve" smooth="yes"/>
      <point x="48" y="824"/>
      <point x="158" y="935"/>
      <point x="381" y="935" type="curve" smooth="yes"/>
      <point x="849" y="935" type="line"/>
      <point x="810" y="883" type="line"/>
    </contour>
    <contour>
      <point x="1375" y="1065" type="line"/>
      <point x="-30" y="1065" type="line"/>
      <point x="-30" y="1293" type="line"/>
      <point x="1375" y="1293" type="line"/>
    </contour>
    <component base="uuvowelsigndeva" xOffset="1077" yOffset="-116"/>
  </outline>
</glyph>
<glyph name="harrvocalicdeva" format="1">
  <advance width="1249"/>
  <outline>
    <contour>
      <point x="1244" y="106" type="curve"/>
      <point x="1098" y="106" type="line"/>
      <point x="1030" y="106"/>
      <point x="983" y="66"/>
      <point x="983" y="24" type="curve" smooth="yes"/>
      <point x="983" y="-14"/>
      <point x="1017" y="-38"/>
      <point x="1076" y="-38" type="curve" smooth="yes"/>
      <point x="1130" y="-38"/>
      <point x="1166" y="-34"/>
      <point x="1258" y="-10" type="curve"/>
      <point x="1295" y="-180" type="line"/>
      <point x="1201" y="-201"/>
      <point x="1146" y="-205"/>
      <point x="1067" y="-205" type="curve" smooth="yes"/>
      <point x="825" y="-205"/>
      <point x="686" y="-96"/>
      <point x="686" y="43" type="curve" smooth="yes"/>
      <point x="686" y="167"/>
      <point x="824" y="263"/>
      <point x="1014" y="263" type="curve" smooth="yes"/>
      <point x="1020" y="263"/>
      <point x="1027" y="263"/>
      <point x="1033" y="263" type="curve"/>
      <point x="969" y="229" type="line"/>
      <point x="969" y="291"/>
      <point x="897" y="341"/>
      <point x="730" y="341" type="curve" smooth="yes"/>
      <point x="561" y="341"/>
      <point x="462" y="237"/>
      <point x="462" y="108" type="curve" smooth="yes"/>
      <point x="462" y="-21"/>
      <point x="531" y="-135"/>
      <point x="787" y="-303" type="curve"/>
      <point x="619" y="-472" type="line"/>
      <point x="319" y="-296"/>
      <point x="161" y="-82"/>
      <point x="161" y="152" type="curve" smooth="yes"/>
      <point x="161" y="382"/>
      <point x="365" y="582"/>
      <point x="708" y="582" type="curve" smooth="yes"/>
      <point x="1053" y="582"/>
      <point x="1253" y="403"/>
      <point x="1253" y="226" type="curve" smooth="yes"/>
      <point x="1253" y="178"/>
      <point x="1249" y="139"/>
    </contour>
    <contour>
      <point x="1279" y="1065" type="line"/>
      <point x="-30" y="1065" type="line"/>
      <point x="-30" y="1293" type="line"/>
      <point x="1279" y="1293" type="line"/>
    </contour>
    <contour>
      <point x="711" y="1077" type="line"/>
      <point x="1059" y="1077" type="line"/>
      <point x="1059" y="707" type="line"/>
      <point x="520" y="707" type="line"/>
      <point x="424" y="707"/>
      <point x="384" y="668"/>
      <point x="384" y="616" type="curve" smooth="yes"/>
      <point x="384" y="563"/>
      <point x="431" y="531"/>
      <point x="526" y="509" type="curve"/>
      <point x="295" y="340" type="line"/>
      <point x="127" y="440"/>
      <point x="48" y="551"/>
      <point x="48" y="687" type="curve" smooth="yes"/>
      <point x="48" y="824"/>
      <point x="158" y="935"/>
      <point x="380" y="935" type="curve" smooth="yes"/>
      <point x="750" y="935" type="line"/>
      <point x="711" y="883" type="line"/>
    </contour>
    <contour>
      <point x="1368" y="-455" type="line"/>
      <point x="1302" y="-476"/>
      <point x="1223" y="-494"/>
      <point x="1135" y="-494" type="curve" smooth="yes"/>
      <point x="940" y="-494"/>
      <point x="844" y="-385"/>
      <point x="844" y="-279" type="curve" smooth="yes"/>
      <point x="844" y="-165"/>
      <point x="955" y="-54"/>
      <point x="1181" y="-54" type="curve"/>
      <point x="1227" y="-170" type="line"/>
      <point x="1121" y="-170"/>
      <point x="1066" y="-217"/>
      <point x="1066" y="-267" type="curve" smooth="yes"/>
      <point x="1066" y="-304"/>
      <point x="1093" y="-335"/>
      <point x="1161" y="-335" type="curve" smooth="yes"/>
      <point x="1215" y="-335"/>
      <point x="1256" y="-326"/>
      <point x="1334" y="-299" type="curve"/>
    </contour>
  </outline>
</glyph>
<glyph name="iivowelsign2deva" format="1">
  <advance width="676"/>
  <outline>
    <contour>
      <point x="136" y="1239" type="line"/>
      <point x="59" y="1435"/>
      <point x="-30" y="1529"/>
      <point x="-135" y="1529" type="curve" smooth="yes"/>
      <point x="-198" y="1529"/>
      <point x="-229" y="1485"/>
      <point x="-229" y="1428" type="curve" smooth="yes"/>
      <point x="-229" y="1371"/>
      <point x="-196" y="1301"/>
      <point x="-148" y="1251" type="curve"/>
      <point x="-484" y="1251" type="line"/>
      <point x="-526" y="1318"/>
      <point x="-550" y="1416"/>
      <point x="-550" y="1508" type="curve" smooth="yes"/>
      <point x="-550" y="1654"/>
      <point x="-431" y="1816"/>
      <point x="-192" y="1816" type="curve" smooth="yes"/>
      <point x="106" y="1816"/>
      <point x="342" y="1626"/>
      <point x="483" y="1239" type="curve"/>
    </contour>
    <component base="aavowelsigndeva"/>
  </outline>
</glyph>
<glyph name="ivowelsign02deva" format="1">
  <advance width="676"/>
  <outline>
    <contour>
      <point x="139" y="1254" type="line"/>
      <point x="139" y="1341" type="line"/>
      <point x="139" y="1600"/>
      <point x="340" y="1818"/>
      <point x="775" y="1818" type="curve" smooth="yes"/>
      <point x="1066" y="1818"/>
      <point x="1386" y="1753"/>
      <point x="1595" y="1677" type="curve"/>
      <point x="1528" y="1439" type="line"/>
      <point x="1357" y="1482"/>
      <point x="1104" y="1536"/>
      <point x="830" y="1536" type="curve" smooth="yes"/>
      <point x="578" y="1536"/>
      <point x="487" y="1438"/>
      <point x="487" y="1313" type="curve" smooth="yes"/>
      <point x="487" y="1254" type="line"/>
    </contour>
    <component base="aavowelsigndeva"/>
  </outline>
</glyph>
<glyph name="ivowelsign03deva" format="1">
  <advance width="676"/>
  <outline>
    <contour>
      <point x="139" y="1254" type="line"/>
      <point x="139" y="1340" type="line"/>
      <point x="139" y="1595"/>
      <point x="311" y="1822"/>
      <point x="845" y="1822" type="curve" smooth="yes"/>
      <point x="1134" y="1822"/>
      <point x="1436" y="1774"/>
      <point x="1678" y="1691" type="curve"/>
      <point x="1613" y="1440" type="line"/>
      <point x="1365" y="1506"/>
      <point x="1105" y="1540"/>
      <point x="897" y="1540" type="curve" smooth="yes"/>
      <point x="579" y="1540"/>
      <point x="487" y="1429"/>
      <point x="487" y="1312" type="curve" smooth="yes"/>
      <point x="487" y="1254" type="line"/>
    </contour>
    <component base="aavowelsigndeva"/>
  </outline>
</glyph>
<glyph name="ivowelsign10deva" format="1">
  <advance width="676"/>
  <outline>
    <contour>
      <point x="139" y="1254" type="line"/>
      <point x="139" y="1339" type="line"/>
      <point x="139" y="1599"/>
      <point x="346" y="1823"/>
      <point x="925" y="1823" type="curve" smooth="yes"/>
      <point x="1557" y="1823"/>
      <point x="2544" y="1745"/>
      <point x="3227" y="1658" type="curve"/>
      <point x="3188" y="1413" type="line"/>
      <point x="2447" y="1492"/>
      <point x="1555" y="1547"/>
      <point x="1009" y="1547" type="curve" smooth="yes"/>
      <point x="584" y="1547"/>
      <point x="487" y="1429"/>
      <point x="487" y="1312" type="curve" smooth="yes"/>
      <point x="487" y="1254" type="line"/>
    </contour>
    <component base="aavowelsigndeva"/>
  </outline>
</glyph>
<glyph name="janyaprehalfdeva" format="1">
  <advance width="912"/>
  <outline>
    <contour>
      <point x="483" y="144" type="curve"/>
      <point x="503" y="117" type="line"/>
      <point x="753" y="-205" type="line"/>
      <point x="525" y="-310" type="line"/>
      <point x="241" y="51" type="line"/>
      <point x="366" y="-16" type="line"/>
      <point x="121" y="-16"/>
      <point x="37" y="63"/>
      <point x="37" y="151" type="curve" smooth="yes"/>
      <point x="37" y="240"/>
      <point x="123" y="318"/>
      <point x="230" y="318" type="curve" smooth="yes"/>
      <point x="318" y="318"/>
      <point x="386" y="271"/>
    </contour>
    <contour>
      <point x="-30" y="1065" type="line"/>
      <point x="-30" y="1293" type="line"/>
      <point x="942" y="1293" type="line"/>
      <point x="942" y="1065" type="line"/>
    </contour>
    <contour>
      <point x="489" y="730" type="line"/>
      <point x="425" y="730"/>
      <point x="413" y="718"/>
      <point x="413" y="684" type="curve" smooth="yes"/>
      <point x="413" y="650"/>
      <point x="447" y="632"/>
      <point x="565" y="610" type="curve" smooth="yes"/>
      <point x="778" y="569"/>
      <point x="876" y="463"/>
      <point x="876" y="309" type="curve" smooth="yes"/>
      <point x="876" y="150"/>
      <point x="721" y="-14"/>
      <point x="414" y="-14" type="curve"/>
      <point x="381" y="207" type="line"/>
      <point x="502" y="207"/>
      <point x="571" y="258"/>
      <point x="571" y="306" type="curve" smooth="yes"/>
      <point x="571" y="358"/>
      <point x="540" y="383"/>
      <point x="363" y="432" type="curve" smooth="yes"/>
      <point x="178" y="483"/>
      <point x="70" y="574"/>
      <point x="70" y="723" type="curve" smooth="yes"/>
      <point x="70" y="853"/>
      <point x="200" y="950"/>
      <point x="402" y="950" type="curve" smooth="yes"/>
      <point x="1202" y="950" type="line"/>
      <point x="1164" y="730" type="line"/>
    </contour>
  </outline>
</glyph>
<glyph name="janyaradeva" format="1">
  <advance width="1628"/>
  <outline>
    <contour>
      <point x="1328" y="459" type="line"/>
      <point x="901" y="-22" type="line"/>
      <point x="674" y="154" type="line"/>
      <point x="1111" y="644" type="line"/>
    </contour>
    <contour>
      <point x="492" y="144" type="curve"/>
      <point x="511" y="121" type="line"/>
      <point x="763" y="-205" type="line"/>
      <point x="534" y="-310" type="line"/>
      <point x="251" y="51" type="line"/>
      <point x="375" y="-16" type="line"/>
      <point x="130" y="-16"/>
      <point x="46" y="63"/>
      <point x="46" y="151" type="curve" smooth="yes"/>
      <point x="46" y="240"/>
      <point x="132" y="318"/>
      <point x="239" y="318" type="curve" smooth="yes"/>
      <point x="327" y="318"/>
      <point x="395" y="271"/>
    </contour>
    <contour>
      <point x="-30" y="1065" type="line"/>
      <point x="-30" y="1293" type="line"/>
      <point x="1658" y="1293" type="line"/>
      <point x="1658" y="1065" type="line"/>
    </contour>
    <contour>
      <point x="512" y="730" type="line"/>
      <point x="451" y="730"/>
      <point x="418" y="718"/>
      <point x="418" y="684" type="curve" smooth="yes"/>
      <point x="418" y="651"/>
      <point x="454" y="630"/>
      <point x="572" y="609" type="curve" smooth="yes"/>
      <point x="768" y="573"/>
      <point x="882" y="467"/>
      <point x="882" y="308" type="curve" smooth="yes"/>
      <point x="882" y="149"/>
      <point x="727" y="-14"/>
      <point x="423" y="-14" type="curve"/>
      <point x="390" y="207" type="line"/>
      <point x="508" y="207"/>
      <point x="576" y="257"/>
      <point x="576" y="305" type="curve" smooth="yes"/>
      <point x="576" y="356"/>
      <point x="547" y="381"/>
      <point x="371" y="431" type="curve" smooth="yes"/>
      <point x="186" y="484"/>
      <point x="98" y="592"/>
      <point x="98" y="707" type="curve" smooth="yes"/>
      <point x="98" y="853"/>
      <point x="203" y="950"/>
      <point x="402" y="950" type="curve" smooth="yes"/>
      <point x="1118" y="950" type="line"/>
      <point x="1118" y="730" type="line"/>
    </contour>
    <contour>
      <point x="1085" y="1105" type="line"/>
      <point x="1434" y="1105" type="line"/>
      <point x="1434" y="0" type="line"/>
      <point x="1085" y="0" type="line"/>
    </contour>
    <contour>
      <point x="1085" y="1293" type="move" name="top"/>
    </contour>
  </outline>
</glyph>
<glyph name="jathadeva" format="1">
  <advance width="2466"/>
  <outline>
    <contour>
      <point x="-30" y="1065" type="line"/>
      <point x="-30" y="1293" type="line"/>
      <point x="1100" y="1293" type="line"/>
      <point x="1100" y="1065" type="line"/>
    </contour>
    <contour>
      <point x="772" y="520" type="line"/>
      <point x="806" y="605" type="line"/>
      <point x="915" y="535"/>
      <point x="986" y="430"/>
      <point x="986" y="267" type="curve" smooth="yes"/>
      <point x="986" y="86"/>
      <point x="848" y="-60"/>
      <point x="626" y="-60" type="curve" smooth="yes"/>
      <point x="398" y="-60"/>
      <point x="188" y="73"/>
      <point x="10" y="319" type="curve"/>
      <point x="163" y="546" type="line"/>
      <point x="350" y="300"/>
      <point x="463" y="235"/>
      <point x="555" y="235" type="curve" smooth="yes"/>
      <point x="630" y="235"/>
      <point x="679" y="282"/>
      <point x="679" y="352" type="curve" smooth="yes"/>
      <point x="679" y="424"/>
      <point x="614" y="525"/>
      <point x="438" y="564" type="curve"/>
      <point x="438" y="803" type="line"/>
      <point x="1379" y="803" type="line"/>
      <point x="1377" y="520" type="line"/>
    </contour>
    <component base="thadeva" xOffset="962"/>
  </outline>
</glyph>
<glyph name="jayadeva" format="1">
  <advance width="2521"/>
  <outline>
    <contour>
      <point x="773" y="594" type="line"/>
      <point x="808" y="680" type="line"/>
      <point x="919" y="611"/>
      <point x="987" y="505"/>
      <point x="987" y="360" type="curve" smooth="yes"/>
      <point x="987" y="179"/>
      <point x="849" y="33"/>
      <point x="627" y="33" type="curve" smooth="yes"/>
      <point x="399" y="33"/>
      <point x="189" y="166"/>
      <point x="11" y="413" type="curve"/>
      <point x="164" y="639" type="line"/>
      <point x="351" y="393"/>
      <point x="464" y="329"/>
      <point x="556" y="329" type="curve" smooth="yes"/>
      <point x="632" y="329"/>
      <point x="681" y="375"/>
      <point x="681" y="445" type="curve" smooth="yes"/>
      <point x="681" y="524"/>
      <point x="615" y="598"/>
      <point x="440" y="637" type="curve"/>
      <point x="440" y="877" type="line"/>
      <point x="1458" y="877" type="line"/>
      <point x="1411" y="594" type="line"/>
    </contour>
    <contour>
      <point x="-30" y="1065" type="line"/>
      <point x="-30" y="1293" type="line"/>
      <point x="1219" y="1293" type="line"/>
      <point x="1219" y="1065" type="line"/>
    </contour>
    <component base="yadeva" xOffset="1099"/>
  </outline>
</glyph>
<glyph name="jhadevaNEP" format="1">
  <advance width="2058"/>
  <outline>
    <contour>
      <point x="1336" y="1065" type="line"/>
      <point x="1336" y="1293" type="line"/>
      <point x="2088" y="1293" type="line"/>
      <point x="2088" y="1065" type="line"/>
    </contour>
    <contour>
      <point x="1287" y="350" type="curve"/>
      <point x="1278" y="820" type="line"/>
      <point x="1322" y="829"/>
      <point x="1398" y="839"/>
      <point x="1476" y="839" type="curve" smooth="yes"/>
      <point x="1749" y="839"/>
      <point x="1947" y="680"/>
      <point x="1947" y="441" type="curve" smooth="yes"/>
      <point x="1947" y="321"/>
      <point x="1899" y="201"/>
      <point x="1824" y="104" type="curve"/>
      <point x="1528" y="207" type="line"/>
      <point x="1593" y="301"/>
      <point x="1629" y="382"/>
      <point x="1629" y="462" type="curve" smooth="yes"/>
      <point x="1629" y="521"/>
      <point x="1591" y="559"/>
      <point x="1526" y="559" type="curve" smooth="yes"/>
      <point x="1447" y="559"/>
      <point x="1367" y="492"/>
    </contour>
    <component base="bhadeva"/>
    <contour>
      <point x="1008" y="0" type="move" name="btm"/>
    </contour>
    <contour>
      <point x="1008" y="1293" type="move" name="top"/>
    </contour>
  </outline>
</glyph>
<glyph name="jhaprehalfdeva" format="1">
  <advance width="1183"/>
  <outline>
    <contour>
      <point x="556" y="144" type="curve"/>
      <point x="572" y="126" type="line"/>
      <point x="868" y="-187" type="line"/>
      <point x="655" y="-320" type="line"/>
      <point x="309" y="59" type="line"/>
      <point x="443" y="-33" type="line"/>
      <point x="177" y="-33"/>
      <point x="80" y="83"/>
      <point x="80" y="167" type="curve" smooth="yes"/>
      <point x="80" y="244"/>
      <point x="147" y="317"/>
      <point x="248" y="317" type="curve" smooth="yes"/>
      <point x="346" y="317"/>
      <point x="437" y="270"/>
    </contour>
    <contour>
      <point x="1559" y="387" type="line"/>
      <point x="1420" y="309"/>
      <point x="1284" y="280"/>
      <point x="1131" y="280" type="curve" smooth="yes"/>
      <point x="1014" y="280"/>
      <point x="905" y="296"/>
      <point x="838" y="312" type="curve"/>
      <point x="830" y="564" type="line"/>
      <point x="894" y="550"/>
      <point x="961" y="542"/>
      <point x="1018" y="542" type="curve" smooth="yes"/>
      <point x="1144" y="542"/>
      <point x="1316" y="592"/>
      <point x="1441" y="675" type="curve"/>
    </contour>
    <contour>
      <point x="599" y="1086" type="line"/>
      <point x="947" y="1086" type="line"/>
      <point x="947" y="723" type="line"/>
      <point x="478" y="723" type="line"/>
      <point x="402" y="723"/>
      <point x="373" y="690"/>
      <point x="373" y="648" type="curve" smooth="yes"/>
      <point x="373" y="611"/>
      <point x="398" y="588"/>
      <point x="461" y="558" type="curve"/>
      <point x="347" y="574" type="line"/>
      <point x="442" y="614"/>
      <point x="553" y="638"/>
      <point x="665" y="638" type="curve" smooth="yes"/>
      <point x="897" y="638"/>
      <point x="1050" y="510"/>
      <point x="1050" y="332" type="curve" smooth="yes"/>
      <point x="1050" y="132"/>
      <point x="882" y="-21"/>
      <point x="508" y="-21" type="curve"/>
      <point x="457" y="218" type="line"/>
      <point x="675" y="218"/>
      <point x="742" y="275"/>
      <point x="742" y="326" type="curve" smooth="yes"/>
      <point x="742" y="367"/>
      <point x="704" y="388"/>
      <point x="640" y="388" type="curve" smooth="yes"/>
      <point x="579" y="388"/>
      <point x="490" y="368"/>
      <point x="412" y="335" type="curve"/>
      <point x="403" y="335" type="line"/>
      <point x="156" y="447"/>
      <point x="70" y="565"/>
      <point x="70" y="700" type="curve" smooth="yes"/>
      <point x="70" y="828"/>
      <point x="165" y="946"/>
      <point x="400" y="946" type="curve" smooth="yes"/>
      <point x="666" y="946" type="line"/>
      <point x="599" y="880" type="line"/>
    </contour>
    <contour>
      <point x="1213" y="1065" type="line"/>
      <point x="-30" y="1065" type="line"/>
      <point x="-30" y="1293" type="line"/>
      <point x="1213" y="1293" type="line"/>
    </contour>
  </outline>
</glyph>
<glyph name="jhaprehalfdevaNEP" format="1">
  <advance width="1636"/>
  <outline>
    <contour>
      <point x="1263" y="348" type="curve"/>
      <point x="1254" y="818" type="line"/>
      <point x="1297" y="831"/>
      <point x="1373" y="847"/>
      <point x="1487" y="847" type="curve" smooth="yes"/>
      <point x="1677" y="847"/>
      <point x="1840" y="785"/>
      <point x="1975" y="655" type="curve"/>
      <point x="1919" y="426" type="line"/>
      <point x="1794" y="531"/>
      <point x="1675" y="567"/>
      <point x="1566" y="567" type="curve" smooth="yes"/>
      <point x="1430" y="567"/>
      <point x="1339" y="495"/>
    </contour>
    <contour>
      <point x="1281" y="1065" type="line"/>
      <point x="1281" y="1293" type="line"/>
      <point x="1666" y="1293" type="line"/>
      <point x="1666" y="1065" type="line"/>
    </contour>
    <component base="bhadeva"/>
  </outline>
</glyph>
<glyph name="jharaprehalfdeva" format="1">
  <advance width="1201"/>
  <outline>
    <contour>
      <point x="556" y="144" type="curve"/>
      <point x="599" y="98" type="line"/>
      <point x="868" y="-187" type="line"/>
      <point x="655" y="-320" type="line"/>
      <point x="309" y="59" type="line"/>
      <point x="443" y="-33" type="line"/>
      <point x="177" y="-33"/>
      <point x="80" y="83"/>
      <point x="80" y="167" type="curve" smooth="yes"/>
      <point x="80" y="244"/>
      <point x="147" y="317"/>
      <point x="248" y="317" type="curve" smooth="yes"/>
      <point x="346" y="317"/>
      <point x="437" y="270"/>
    </contour>
    <contour>
      <point x="1626" y="352" type="line"/>
      <point x="1063" y="-221" type="line"/>
      <point x="847" y="-28" type="line"/>
      <point x="1490" y="604" type="line"/>
    </contour>
    <contour>
      <point x="1561" y="455" type="line"/>
      <point x="1443" y="382"/>
      <point x="1289" y="317"/>
      <point x="1086" y="317" type="curve" smooth="yes"/>
      <point x="1000" y="317"/>
      <point x="905" y="333"/>
      <point x="838" y="349" type="curve"/>
      <point x="830" y="601" type="line"/>
      <point x="894" y="585"/>
      <point x="951" y="577"/>
      <point x="1008" y="577" type="curve" smooth="yes"/>
      <point x="1152" y="577"/>
      <point x="1307" y="632"/>
      <point x="1428" y="747" type="curve"/>
    </contour>
    <contour>
      <point x="599" y="1086" type="line"/>
      <point x="947" y="1086" type="line"/>
      <point x="947" y="723" type="line"/>
      <point x="478" y="723" type="line"/>
      <point x="402" y="723"/>
      <point x="373" y="690"/>
      <point x="373" y="648" type="curve" smooth="yes"/>
      <point x="373" y="611"/>
      <point x="398" y="588"/>
      <point x="461" y="558" type="curve"/>
      <point x="347" y="574" type="line"/>
      <point x="442" y="614"/>
      <point x="553" y="638"/>
      <point x="665" y="638" type="curve" smooth="yes"/>
      <point x="888" y="638"/>
      <point x="1013" y="520"/>
      <point x="1013" y="341" type="curve" smooth="yes"/>
      <point x="1013" y="161"/>
      <point x="799" y="-21"/>
      <point x="508" y="-21" type="curve"/>
      <point x="457" y="218" type="line"/>
      <point x="592" y="218"/>
      <point x="687" y="276"/>
      <point x="687" y="328" type="curve" smooth="yes"/>
      <point x="687" y="367"/>
      <point x="654" y="388"/>
      <point x="604" y="388" type="curve" smooth="yes"/>
      <point x="543" y="388"/>
      <point x="481" y="367"/>
      <point x="412" y="335" type="curve"/>
      <point x="403" y="335" type="line"/>
      <point x="156" y="447"/>
      <point x="70" y="565"/>
      <point x="70" y="700" type="curve" smooth="yes"/>
      <point x="70" y="828"/>
      <point x="165" y="946"/>
      <point x="400" y="946" type="curve" smooth="yes"/>
      <point x="666" y="946" type="line"/>
      <point x="599" y="880" type="line"/>
    </contour>
    <contour>
      <point x="1231" y="1065" type="line"/>
      <point x="-30" y="1065" type="line"/>
      <point x="-30" y="1293" type="line"/>
      <point x="1231" y="1293" type="line"/>
    </contour>
  </outline>
</glyph>
<glyph name="kassadeva" format="1">
  <advance width="1715"/>
  <outline>
    <contour>
      <point x="1178" y="1104" type="line"/>
      <point x="1527" y="1104" type="line"/>
      <point x="1527" y="0" type="line"/>
      <point x="1178" y="0" type="line"/>
    </contour>
    <contour>
      <point x="1745" y="1065" type="line"/>
      <point x="1060" y="1065" type="line"/>
      <point x="1060" y="1293" type="line"/>
      <point x="1745" y="1293" type="line"/>
    </contour>
    <contour>
      <point x="516" y="121" type="line"/>
      <point x="752" y="197" type="line"/>
      <point x="892" y="-118" type="line"/>
      <point x="640" y="-197" type="line"/>
    </contour>
    <contour>
      <point x="620" y="991" type="curve" smooth="yes"/>
      <point x="620" y="1043"/>
      <point x="582" y="1077"/>
      <point x="527" y="1077" type="curve" smooth="yes"/>
      <point x="467" y="1077"/>
      <point x="432" y="1037"/>
      <point x="432" y="977" type="curve" smooth="yes"/>
      <point x="432" y="846"/>
      <point x="775" y="732"/>
      <point x="1289" y="732" type="curve"/>
      <point x="1288" y="469" type="line"/>
      <point x="556" y="469"/>
      <point x="137" y="752"/>
      <point x="137" y="1029" type="curve" smooth="yes"/>
      <point x="137" y="1192"/>
      <point x="259" y="1322"/>
      <point x="497" y="1322" type="curve" smooth="yes"/>
      <point x="765" y="1322"/>
      <point x="894" y="1166"/>
      <point x="894" y="1000" type="curve" smooth="yes"/>
      <point x="894" y="830"/>
      <point x="812" y="711"/>
      <point x="598" y="583" type="curve" smooth="yes"/>
      <point x="428" y="481"/>
      <point x="366" y="407"/>
      <point x="366" y="342" type="curve" smooth="yes"/>
      <point x="366" y="275"/>
      <point x="410" y="237"/>
      <point x="494" y="237" type="curve" smooth="yes"/>
      <point x="539" y="237"/>
      <point x="548" y="239"/>
      <point x="621" y="261" type="curve"/>
      <point x="501" y="159" type="line"/>
      <point x="483" y="203"/>
      <point x="475" y="231"/>
      <point x="475" y="277" type="curve" smooth="yes"/>
      <point x="475" y="334"/>
      <point x="552" y="397"/>
      <point x="644" y="397" type="curve" smooth="yes"/>
      <point x="809" y="397"/>
      <point x="912" y="310"/>
      <point x="912" y="219" type="curve" smooth="yes"/>
      <point x="912" y="122"/>
      <point x="752" y="16"/>
      <point x="524" y="16" type="curve" smooth="yes"/>
      <point x="262" y="16"/>
      <point x="52" y="136"/>
      <point x="52" y="372" type="curve" smooth="yes"/>
      <point x="52" y="517"/>
      <point x="157" y="633"/>
      <point x="367" y="747" type="curve" smooth="yes"/>
      <point x="570" y="857"/>
      <point x="620" y="919"/>
    </contour>
    <contour>
      <point x="1178" y="1293" type="move" name="top"/>
    </contour>
  </outline>
</glyph>
<glyph name="kassaraprehalfdeva" format="1">
  <advance width="1210"/>
  <outline>
    <contour>
      <point x="475" y="121" type="line"/>
      <point x="711" y="197" type="line"/>
      <point x="851" y="-118" type="line"/>
      <point x="599" y="-198" type="line"/>
    </contour>
    <contour>
      <point x="262" y="1029" type="curve" smooth="yes"/>
      <point x="262" y="1192"/>
      <point x="390" y="1326"/>
      <point x="628" y="1326" type="curve" smooth="yes"/>
      <point x="896" y="1326"/>
      <point x="1029" y="1157"/>
      <point x="1029" y="990" type="curve" smooth="yes"/>
      <point x="1029" y="821"/>
      <point x="918" y="689"/>
      <point x="665" y="582" type="curve" smooth="yes"/>
      <point x="385" y="462"/>
      <point x="347" y="407"/>
      <point x="347" y="341" type="curve" smooth="yes"/>
      <point x="347" y="274"/>
      <point x="385" y="237"/>
      <point x="454" y="237" type="curve" smooth="yes"/>
      <point x="499" y="237"/>
      <point x="507" y="239"/>
      <point x="579" y="261" type="curve"/>
      <point x="460" y="158" type="line"/>
      <point x="442" y="203"/>
      <point x="434" y="231"/>
      <point x="434" y="277" type="curve" smooth="yes"/>
      <point x="434" y="334"/>
      <point x="511" y="397"/>
      <point x="603" y="397" type="curve" smooth="yes"/>
      <point x="767" y="397"/>
      <point x="871" y="310"/>
      <point x="871" y="219" type="curve" smooth="yes"/>
      <point x="871" y="122"/>
      <point x="711" y="16"/>
      <point x="484" y="16" type="curve" smooth="yes"/>
      <point x="237" y="16"/>
      <point x="32" y="135"/>
      <point x="32" y="370" type="curve" smooth="yes"/>
      <point x="32" y="517"/>
      <point x="136" y="649"/>
      <point x="461" y="773" type="curve" smooth="yes"/>
      <point x="705" y="868"/>
      <point x="748" y="924"/>
      <point x="748" y="991" type="curve" smooth="yes"/>
      <point x="748" y="1039"/>
      <point x="712" y="1076"/>
      <point x="657" y="1076" type="curve" smooth="yes"/>
      <point x="597" y="1076"/>
      <point x="565" y="1040"/>
      <point x="565" y="980" type="curve" smooth="yes"/>
      <point x="565" y="883"/>
      <point x="821" y="731"/>
      <point x="1366" y="727" type="curve"/>
      <point x="1412" y="465" type="line"/>
      <point x="660" y="472"/>
      <point x="262" y="723"/>
    </contour>
    <contour>
      <point x="1412" y="465" type="line"/>
      <point x="1037" y="30" type="line"/>
      <point x="807" y="196" type="line"/>
      <point x="1201" y="638" type="line"/>
    </contour>
  </outline>
</glyph>
<glyph name="khaprehalfdeva" format="1">
  <advance width="1376"/>
  <outline>
    <contour>
      <point x="256" y="723" type="line"/>
      <point x="392" y="762"/>
      <point x="424" y="836"/>
      <point x="424" y="950" type="curve" smooth="yes"/>
      <point x="424" y="1151" type="line"/>
      <point x="772" y="1151" type="line"/>
      <point x="772" y="933" type="line"/>
      <point x="772" y="723"/>
      <point x="721" y="539"/>
      <point x="461" y="415" type="curve"/>
    </contour>
    <contour>
      <point x="-30" y="1065" type="line"/>
      <point x="-30" y="1293" type="line"/>
      <point x="1406" y="1293" type="line"/>
      <point x="1406" y="1065" type="line"/>
    </contour>
    <contour>
      <point x="374" y="632" type="line"/>
      <point x="408" y="570"/>
      <point x="466" y="493"/>
      <point x="517" y="442" type="curve" smooth="yes"/>
      <point x="676" y="283"/>
      <point x="845" y="208"/>
      <point x="1085" y="208" type="curve" smooth="yes"/>
      <point x="1319" y="208"/>
      <point x="1541" y="304"/>
      <point x="1686" y="491" type="curve"/>
      <point x="1839" y="309" type="line"/>
      <point x="1663" y="128"/>
      <point x="1430" y="-25"/>
      <point x="1050" y="-25" type="curve" smooth="yes"/>
      <point x="781" y="-25"/>
      <point x="478" y="88"/>
      <point x="295" y="271" type="curve" smooth="yes"/>
      <point x="182" y="384"/>
      <point x="102" y="495"/>
      <point x="61" y="583" type="curve" smooth="yes"/>
      <point x="39" y="630"/>
      <point x="28" y="672"/>
      <point x="28" y="705" type="curve" smooth="yes"/>
      <point x="28" y="789"/>
      <point x="95" y="856"/>
      <point x="181" y="856" type="curve" smooth="yes"/>
      <point x="266" y="856"/>
      <point x="313" y="820"/>
      <point x="381" y="733" type="curve" smooth="yes"/>
      <point x="427" y="673" type="line"/>
    </contour>
    <contour>
      <point x="1308" y="661" type="curve" smooth="yes"/>
      <point x="1308" y="704"/>
      <point x="1245" y="741"/>
      <point x="1144" y="741" type="curve" smooth="yes"/>
      <point x="1061" y="741"/>
      <point x="1011" y="686"/>
      <point x="1011" y="635" type="curve" smooth="yes"/>
      <point x="1011" y="580"/>
      <point x="1052" y="539"/>
      <point x="1113" y="539" type="curve" smooth="yes"/>
      <point x="1225" y="539"/>
      <point x="1308" y="603"/>
    </contour>
    <contour>
      <point x="1546" y="630" type="curve" smooth="yes"/>
      <point x="1546" y="457"/>
      <point x="1370" y="299"/>
      <point x="1147" y="299" type="curve" smooth="yes"/>
      <point x="908" y="299"/>
      <point x="734" y="480"/>
      <point x="734" y="669" type="curve" smooth="yes"/>
      <point x="734" y="833"/>
      <point x="843" y="966"/>
      <point x="1081" y="966" type="curve" smooth="yes"/>
      <point x="1386" y="966"/>
      <point x="1546" y="806"/>
    </contour>
  </outline>
</glyph>
<glyph name="kharadeva" format="1">
  <advance width="1861"/>
  <outline>
    <contour>
      <point x="1485" y="355" type="line"/>
      <point x="653" y="-231" type="line"/>
      <point x="456" y="-9" type="line"/>
      <point x="1289" y="595" type="line"/>
    </contour>
    <contour>
      <point x="1369" y="690" type="line"/>
      <point x="1300" y="725"/>
      <point x="1223" y="741"/>
      <point x="1146" y="741" type="curve" smooth="yes"/>
      <point x="1062" y="741"/>
      <point x="1011" y="687"/>
      <point x="1011" y="635" type="curve" smooth="yes"/>
      <point x="1011" y="580"/>
      <point x="1051" y="539"/>
      <point x="1112" y="539" type="curve" smooth="yes"/>
      <point x="1210" y="539"/>
      <point x="1304" y="611"/>
      <point x="1366" y="713" type="curve"/>
      <point x="1366" y="350" type="line"/>
      <point x="1307" y="315"/>
      <point x="1239" y="299"/>
      <point x="1146" y="299" type="curve" smooth="yes"/>
      <point x="907" y="299"/>
      <point x="734" y="480"/>
      <point x="734" y="669" type="curve" smooth="yes"/>
      <point x="734" y="833"/>
      <point x="844" y="967"/>
      <point x="1082" y="967" type="curve" smooth="yes"/>
      <point x="1207" y="967"/>
      <point x="1302" y="941"/>
      <point x="1369" y="902" type="curve"/>
    </contour>
    <contour>
      <point x="256" y="723" type="line"/>
      <point x="392" y="762"/>
      <point x="424" y="836"/>
      <point x="424" y="950" type="curve" smooth="yes"/>
      <point x="424" y="1151" type="line"/>
      <point x="772" y="1151" type="line"/>
      <point x="772" y="933" type="line"/>
      <point x="772" y="723"/>
      <point x="721" y="539"/>
      <point x="461" y="415" type="curve"/>
    </contour>
    <contour>
      <point x="-30" y="1065" type="line"/>
      <point x="-30" y="1293" type="line"/>
      <point x="1891" y="1293" type="line"/>
      <point x="1891" y="1065" type="line"/>
    </contour>
    <contour>
      <point x="1324" y="1104" type="line"/>
      <point x="1672" y="1104" type="line"/>
      <point x="1672" y="0" type="line"/>
      <point x="1324" y="0" type="line"/>
    </contour>
    <contour>
      <point x="378" y="637" type="line"/>
      <point x="418" y="562"/>
      <point x="468" y="504"/>
      <point x="518" y="454" type="curve" smooth="yes"/>
      <point x="682" y="290"/>
      <point x="856" y="238"/>
      <point x="1070" y="238" type="curve"/>
      <point x="978" y="4" type="line"/>
      <point x="770" y="4"/>
      <point x="453" y="114"/>
      <point x="267" y="300" type="curve" smooth="yes"/>
      <point x="171" y="396"/>
      <point x="99" y="498"/>
      <point x="60" y="584" type="curve" smooth="yes"/>
      <point x="39" y="630"/>
      <point x="28" y="671"/>
      <point x="28" y="705" type="curve" smooth="yes"/>
      <point x="28" y="789"/>
      <point x="95" y="856"/>
      <point x="181" y="856" type="curve" smooth="yes"/>
      <point x="266" y="856"/>
      <point x="313" y="820"/>
      <point x="381" y="733" type="curve" smooth="yes"/>
      <point x="427" y="673" type="line"/>
    </contour>
    <contour>
      <point x="1324" y="1293" type="move" name="top"/>
    </contour>
  </outline>
</glyph>
<glyph name="ladevaMAR" format="1">
  <advance width="1672"/>
  <outline>
    <contour>
      <point x="1038" y="635" type="curve"/>
      <point x="833" y="465" type="line"/>
      <point x="744" y="570"/>
      <point x="664" y="618"/>
      <point x="570" y="618" type="curve" smooth="yes"/>
      <point x="453" y="618"/>
      <point x="387" y="532"/>
      <point x="387" y="436" type="curve" smooth="yes"/>
      <point x="387" y="341"/>
      <point x="444" y="253"/>
      <point x="598" y="107" type="curve"/>
      <point x="354" y="-22" type="line"/>
      <point x="175" y="139"/>
      <point x="69" y="321"/>
      <point x="69" y="509" type="curve" smooth="yes"/>
      <point x="69" y="740"/>
      <point x="233" y="908"/>
      <point x="468" y="908" type="curve" smooth="yes"/>
      <point x="687" y="908"/>
      <point x="838" y="830"/>
    </contour>
    <contour>
      <point x="628" y="349" type="line"/>
      <point x="693" y="647"/>
      <point x="843" y="893"/>
      <point x="1149" y="893" type="curve" smooth="yes"/>
      <point x="1445" y="893"/>
      <point x="1604" y="718"/>
      <point x="1604" y="479" type="curve" smooth="yes"/>
      <point x="1604" y="310"/>
      <point x="1509" y="126"/>
      <point x="1348" y="-20" type="curve"/>
      <point x="1076" y="119" type="line"/>
      <point x="1223" y="257"/>
      <point x="1293" y="376"/>
      <point x="1293" y="492" type="curve" smooth="yes"/>
      <point x="1293" y="561"/>
      <point x="1251" y="604"/>
      <point x="1184" y="604" type="curve" smooth="yes"/>
      <point x="1075" y="604"/>
      <point x="972" y="485"/>
      <point x="924" y="245" type="curve"/>
    </contour>
    <contour>
      <point x="1136" y="1104" type="line"/>
      <point x="1484" y="1104" type="line"/>
      <point x="1484" y="703" type="line"/>
      <point x="1136" y="703" type="line"/>
    </contour>
    <contour>
      <point x="-30" y="1065" type="line"/>
      <point x="-30" y="1293" type="line"/>
      <point x="1702" y="1293" type="line"/>
      <point x="1702" y="1065" type="line"/>
    </contour>
    <contour>
      <point x="684" y="-16" type="move" name="btm"/>
    </contour>
    <contour>
      <point x="1014" y="1293" type="move" name="top"/>
    </contour>
  </outline>
</glyph>
<glyph name="laprehalfdeva" format="1">
  <advance width="1111"/>
  <outline>
    <contour>
      <point x="-30" y="1065" type="line"/>
      <point x="-30" y="1293" type="line"/>
      <point x="1141" y="1293" type="line"/>
      <point x="1141" y="1065" type="line"/>
    </contour>
    <contour>
      <point x="1027" y="621" type="curve"/>
      <point x="815" y="453" type="line"/>
      <point x="736" y="568"/>
      <point x="655" y="618"/>
      <point x="570" y="618" type="curve" smooth="yes"/>
      <point x="449" y="618"/>
      <point x="384" y="539"/>
      <point x="384" y="439" type="curve" smooth="yes"/>
      <point x="384" y="325"/>
      <point x="452" y="231"/>
      <point x="556" y="116" type="curve"/>
      <point x="321" y="-15" type="line"/>
      <point x="192" y="116"/>
      <point x="70" y="321"/>
      <point x="70" y="509" type="curve" smooth="yes"/>
      <point x="70" y="739"/>
      <point x="233" y="908"/>
      <point x="493" y="908" type="curve" smooth="yes"/>
      <point x="711" y="908"/>
      <point x="894" y="807"/>
    </contour>
    <contour>
      <point x="1347" y="850" type="line"/>
      <point x="1421" y="548" type="line"/>
      <point x="754" y="176" type="line"/>
      <point x="566" y="403" type="line"/>
    </contour>
  </outline>
</glyph>
<glyph name="layadeva" format="1">
  <advance width="2616"/>
  <outline>
    <contour>
      <point x="881" y="237" type="curve"/>
      <point x="604" y="366" type="line"/>
      <point x="718" y="656"/>
      <point x="903" y="851"/>
      <point x="1137" y="851" type="curve" smooth="yes"/>
      <point x="1312" y="851"/>
      <point x="1447" y="777"/>
      <point x="1573" y="645" type="curve"/>
      <point x="1362" y="457" type="line"/>
      <point x="1305" y="521"/>
      <point x="1255" y="548"/>
      <point x="1178" y="548" type="curve" smooth="yes"/>
      <point x="1075" y="548"/>
      <point x="973" y="449"/>
    </contour>
    <contour>
      <point x="-30" y="1065" type="line"/>
      <point x="-30" y="1293" type="line"/>
      <point x="1194" y="1293" type="line"/>
      <point x="1194" y="1065" type="line"/>
    </contour>
    <contour>
      <point x="1023" y="623" type="curve"/>
      <point x="811" y="454" type="line"/>
      <point x="733" y="566"/>
      <point x="653" y="615"/>
      <point x="570" y="615" type="curve" smooth="yes"/>
      <point x="449" y="615"/>
      <point x="384" y="536"/>
      <point x="384" y="437" type="curve" smooth="yes"/>
      <point x="384" y="325"/>
      <point x="451" y="231"/>
      <point x="555" y="117" type="curve"/>
      <point x="321" y="-14" type="line"/>
      <point x="192" y="116"/>
      <point x="70" y="322"/>
      <point x="70" y="508" type="curve" smooth="yes"/>
      <point x="70" y="737"/>
      <point x="232" y="905"/>
      <point x="493" y="905" type="curve" smooth="yes"/>
      <point x="710" y="905"/>
      <point x="891" y="805"/>
    </contour>
    <component base="yadeva" xOffset="1195"/>
  </outline>
</glyph>
<glyph name="maraprehalfdeva" format="1">
  <advance width="843"/>
  <outline>
    <contour>
      <point x="1104" y="253" type="line"/>
      <point x="436" y="-167" type="line"/>
      <point x="267" y="57" type="line"/>
      <point x="1045" y="549" type="line"/>
    </contour>
    <contour>
      <point x="-30" y="1065" type="line"/>
      <point x="-30" y="1293" type="line"/>
      <point x="873" y="1293" type="line"/>
      <point x="873" y="1065" type="line"/>
    </contour>
    <contour>
      <point x="41" y="572" type="curve" smooth="yes"/>
      <point x="41" y="643"/>
      <point x="85" y="692"/>
      <point x="172" y="692" type="curve" smooth="yes"/>
      <point x="251" y="692" type="line"/>
      <point x="215" y="663" type="line"/>
      <point x="215" y="1104" type="line"/>
      <point x="562" y="1104" type="line"/>
      <point x="562" y="650" type="line"/>
      <point x="530" y="693" type="line"/>
      <point x="1046" y="693" type="line"/>
      <point x="1048" y="410" type="line"/>
      <point x="512" y="410" type="line"/>
      <point x="562" y="459" type="line"/>
      <point x="562" y="329" type="line"/>
      <point x="562" y="240"/>
      <point x="528" y="187"/>
      <point x="441" y="187" type="curve" smooth="yes"/>
      <point x="358" y="187"/>
      <point x="244" y="239"/>
      <point x="166" y="318" type="curve" smooth="yes"/>
      <point x="96" y="387"/>
      <point x="41" y="486"/>
    </contour>
  </outline>
</glyph>
<glyph name="ninedevaNEP" format="1">
  <advance width="1226"/>
  <outline>
    <contour>
      <point x="580" y="1025" type="line"/>
      <point x="475" y="897"/>
      <point x="427" y="765"/>
      <point x="427" y="639" type="curve" smooth="yes"/>
      <point x="427" y="545"/>
      <point x="480" y="482"/>
      <point x="549" y="482" type="curve" smooth="yes"/>
      <point x="650" y="482"/>
      <point x="745" y="504"/>
      <point x="881" y="504" type="curve" smooth="yes"/>
      <point x="1088" y="504"/>
      <point x="1218" y="365"/>
      <point x="1218" y="193" type="curve" smooth="yes"/>
      <point x="1218" y="80"/>
      <point x="1185" y="-8"/>
      <point x="1119" y="-113" type="curve"/>
      <point x="807" y="-41" type="line"/>
      <point x="862" y="27"/>
      <point x="905" y="100"/>
      <point x="905" y="160" type="curve" smooth="yes"/>
      <point x="905" y="208"/>
      <point x="875" y="233"/>
      <point x="820" y="234" type="curve" smooth="yes"/>
      <point x="748" y="235"/>
      <point x="620" y="201"/>
      <point x="494" y="201" type="curve" smooth="yes"/>
      <point x="298" y="201"/>
      <point x="111" y="345"/>
      <point x="111" y="631" type="curve" smooth="yes"/>
      <point x="111" y="849"/>
      <point x="187" y="1091"/>
      <point x="352" y="1279" type="curve"/>
      <point x="381" y="1285" type="line"/>
      <point x="564" y="1164"/>
      <point x="710" y="1107"/>
      <point x="807" y="1107" type="curve" smooth="yes"/>
      <point x="862" y="1107"/>
      <point x="877" y="1137"/>
      <point x="877" y="1167" type="curve" smooth="yes"/>
      <point x="877" y="1197"/>
      <point x="869" y="1228"/>
      <point x="858" y="1258" type="curve"/>
      <point x="1136" y="1298" type="line"/>
      <point x="1163" y="1227"/>
      <point x="1177" y="1166"/>
      <point x="1177" y="1101" type="curve" smooth="yes"/>
      <point x="1177" y="966"/>
      <point x="1096" y="826"/>
      <point x="876" y="826" type="curve" smooth="yes"/>
      <point x="744" y="826"/>
      <point x="600" y="868"/>
      <point x="455" y="946" type="curve"/>
    </contour>
  </outline>
</glyph>
<glyph name="nnaprehalfdeva" format="1">
  <advance width="1173"/>
  <outline>
    <contour>
      <point x="712" y="1086" type="line"/>
      <point x="1060" y="1086" type="line"/>
      <point x="1060" y="730" type="line"/>
      <point x="1060" y="452"/>
      <point x="916" y="265"/>
      <point x="602" y="265" type="curve" smooth="yes"/>
      <point x="279" y="265"/>
      <point x="112" y="468"/>
      <point x="112" y="728" type="curve" smooth="yes"/>
      <point x="112" y="1086" type="line"/>
      <point x="460" y="1086" type="line"/>
      <point x="460" y="661" type="line"/>
      <point x="460" y="572"/>
      <point x="506" y="516"/>
      <point x="582" y="516" type="curve" smooth="yes"/>
      <point x="662" y="516"/>
      <point x="712" y="573"/>
      <point x="712" y="695" type="curve" smooth="yes"/>
    </contour>
    <contour>
      <point x="-30" y="1065" type="line"/>
      <point x="-30" y="1293" type="line"/>
      <point x="1203" y="1293" type="line"/>
      <point x="1203" y="1065" type="line"/>
    </contour>
  </outline>
</glyph>
<glyph name="phaprehalfdeva" format="1">
  <advance width="1406"/>
  <outline>
    <contour>
      <point x="1032" y="293" type="curve"/>
      <point x="1023" y="763" type="line"/>
      <point x="1067" y="781"/>
      <point x="1142" y="804"/>
      <point x="1266" y="804" type="curve" smooth="yes"/>
      <point x="1442" y="804"/>
      <point x="1600" y="759"/>
      <point x="1753" y="638" type="curve"/>
      <point x="1679" y="410" type="line"/>
      <point x="1547" y="489"/>
      <point x="1455" y="521"/>
      <point x="1335" y="521" type="curve" smooth="yes"/>
      <point x="1217" y="521"/>
      <point x="1099" y="448"/>
    </contour>
    <contour>
      <point x="470" y="1171" type="line"/>
      <point x="470" y="708" type="line"/>
      <point x="470" y="618"/>
      <point x="512" y="571"/>
      <point x="586" y="571" type="curve" smooth="yes"/>
      <point x="661" y="571"/>
      <point x="729" y="606"/>
      <point x="793" y="677" type="curve"/>
      <point x="793" y="314" type="line"/>
      <point x="745" y="301"/>
      <point x="698" y="295"/>
      <point x="628" y="295" type="curve" smooth="yes"/>
      <point x="319" y="295"/>
      <point x="122" y="475"/>
      <point x="122" y="787" type="curve" smooth="yes"/>
      <point x="122" y="1171" type="line"/>
    </contour>
    <contour>
      <point x="-30" y="1065" type="line"/>
      <point x="-30" y="1293" type="line"/>
      <point x="1436" y="1293" type="line"/>
      <point x="1436" y="1065" type="line"/>
    </contour>
    <contour>
      <point x="763" y="1104" type="line"/>
      <point x="1111" y="1104" type="line"/>
      <point x="1111" y="0" type="line"/>
      <point x="763" y="0" type="line"/>
    </contour>
  </outline>
</glyph>
<glyph name="raprehalfdeva" format="1">
  <advance width="558"/>
  <outline>
    <contour>
      <point x="-30" y="1065" type="line"/>
      <point x="-30" y="1293" type="line"/>
      <point x="588" y="1293" type="line"/>
      <point x="588" y="1065" type="line"/>
    </contour>
    <contour>
      <point x="918" y="347" type="line"/>
      <point x="800" y="292"/>
      <point x="688" y="270"/>
      <point x="548" y="270" type="curve" smooth="yes"/>
      <point x="393" y="270"/>
      <point x="221" y="317"/>
      <point x="45" y="415" type="curve"/>
      <point x="112" y="674" type="line"/>
      <point x="244" y="609"/>
      <point x="371" y="579"/>
      <point x="487" y="579" type="curve" smooth="yes"/>
      <point x="608" y="579"/>
      <point x="699" y="594"/>
      <point x="814" y="653" type="curve"/>
    </contour>
  </outline>
</glyph>
<glyph name="rephanusvaradeva" format="1">
  <advance width="-1"/>
  <outline>
    <contour>
      <point x="-125" y="1561" type="curve" smooth="yes"/>
      <point x="-32" y="1561"/>
      <point x="8" y="1503"/>
      <point x="8" y="1451" type="curve" smooth="yes"/>
      <point x="8" y="1402"/>
      <point x="-32" y="1342"/>
      <point x="-125" y="1342" type="curve" smooth="yes"/>
      <point x="-212" y="1342"/>
      <point x="-257" y="1399"/>
      <point x="-257" y="1451" type="curve" smooth="yes"/>
      <point x="-257" y="1504"/>
      <point x="-213" y="1561"/>
    </contour>
    <contour>
      <point x="-530" y="1244" type="line"/>
      <point x="-582" y="1311"/>
      <point x="-624" y="1407"/>
      <point x="-624" y="1503" type="curve" smooth="yes"/>
      <point x="-624" y="1667"/>
      <point x="-475" y="1822"/>
      <point x="-212" y="1822" type="curve" smooth="yes"/>
      <point x="-149" y="1822"/>
      <point x="-96" y="1814"/>
      <point x="-43" y="1801" type="curve"/>
      <point x="-54" y="1627" type="line"/>
      <point x="-83" y="1631"/>
      <point x="-106" y="1632"/>
      <point x="-149" y="1632" type="curve" smooth="yes"/>
      <point x="-259" y="1632"/>
      <point x="-335" y="1548"/>
      <point x="-335" y="1444" type="curve" smooth="yes"/>
      <point x="-335" y="1379"/>
      <point x="-310" y="1316"/>
      <point x="-248" y="1244" type="curve"/>
    </contour>
    <contour>
      <point x="-539" y="1293" type="move" name="_top"/>
    </contour>
  </outline>
</glyph>
<glyph name="rephdeva" format="1">
  <advance width="-1"/>
  <outline>
    <contour>
      <point x="-530" y="1244" type="line"/>
      <point x="-582" y="1311"/>
      <point x="-624" y="1407"/>
      <point x="-624" y="1503" type="curve" smooth="yes"/>
      <point x="-624" y="1667"/>
      <point x="-475" y="1822"/>
      <point x="-212" y="1822" type="curve" smooth="yes"/>
      <point x="-149" y="1822"/>
      <point x="-96" y="1814"/>
      <point x="-43" y="1802" type="curve"/>
      <point x="-54" y="1597" type="line"/>
      <point x="-91" y="1605"/>
      <point x="-120" y="1608"/>
      <point x="-165" y="1608" type="curve" smooth="yes"/>
      <point x="-254" y="1608"/>
      <point x="-310" y="1540"/>
      <point x="-310" y="1454" type="curve" smooth="yes"/>
      <point x="-310" y="1380"/>
      <point x="-282" y="1316"/>
      <point x="-220" y="1244" type="curve"/>
    </contour>
    <contour>
      <point x="-539" y="1293" type="move" name="_top"/>
    </contour>
  </outline>
</glyph>
<glyph name="rha2deva" format="1">
  <advance width="1306"/>
  <outline>
    <contour>
      <point x="1336" y="1065" type="line"/>
      <point x="-30" y="1065" type="line"/>
      <point x="-30" y="1293" type="line"/>
      <point x="1336" y="1293" type="line"/>
    </contour>
    <contour>
      <point x="705" y="1095" type="line"/>
      <point x="1052" y="1095" type="line"/>
      <point x="1052" y="667" type="line"/>
      <point x="693" y="667" type="line"/>
      <point x="449" y="667"/>
      <point x="382" y="557"/>
      <point x="382" y="426" type="curve" smooth="yes"/>
      <point x="382" y="296"/>
      <point x="531" y="191"/>
      <point x="746" y="191" type="curve" smooth="yes"/>
      <point x="901" y="191"/>
      <point x="970" y="249"/>
      <point x="970" y="315" type="curve" smooth="yes"/>
      <point x="970" y="354"/>
      <point x="936" y="381"/>
      <point x="874" y="381" type="curve" smooth="yes"/>
      <point x="797" y="381"/>
      <point x="744" y="323"/>
      <point x="744" y="248" type="curve" smooth="yes"/>
      <point x="744" y="203"/>
      <point x="755" y="161"/>
      <point x="779" y="114" type="curve"/>
      <point x="533" y="86" type="line"/>
      <point x="492" y="150"/>
      <point x="479" y="209"/>
      <point x="479" y="280" type="curve" smooth="yes"/>
      <point x="479" y="435"/>
      <point x="611" y="574"/>
      <point x="868" y="574" type="curve" smooth="yes"/>
      <point x="1090" y="574"/>
      <point x="1224" y="448"/>
      <point x="1224" y="303" type="curve" smooth="yes"/>
      <point x="1224" y="117"/>
      <point x="1071" y="-4"/>
      <point x="750" y="-4" type="curve" smooth="yes"/>
      <point x="315" y="-4"/>
      <point x="67" y="239"/>
      <point x="67" y="496" type="curve" smooth="yes"/>
      <point x="67" y="714"/>
      <point x="199" y="908"/>
      <point x="585" y="908" type="curve" smooth="yes"/>
      <point x="746" y="908" type="line"/>
      <point x="705" y="874" type="line"/>
    </contour>
    <component base="nuktadeva" xOffset="936" yOffset="221"/>
    <contour>
      <point x="553" y="15" type="move" name="btm"/>
    </contour>
    <contour>
      <point x="705" y="1293" type="move" name="top"/>
    </contour>
  </outline>
</glyph>
<glyph name="saprehalfdeva" format="1">
  <advance width="998"/>
  <outline>
    <contour>
      <point x="833" y="94" type="line"/>
      <point x="584" y="-67" type="line"/>
      <point x="107" y="554" type="line"/>
      <point x="54" y="622"/>
      <point x="29" y="679"/>
      <point x="29" y="739" type="curve" smooth="yes"/>
      <point x="29" y="816"/>
      <point x="85" y="885"/>
      <point x="177" y="885" type="curve" smooth="yes"/>
      <point x="245" y="885"/>
      <point x="294" y="848"/>
      <point x="336" y="793" type="curve" smooth="yes"/>
      <point x="433" y="664" type="line"/>
      <point x="417" y="643" type="line"/>
    </contour>
    <contour>
      <point x="266" y="718" type="line"/>
      <point x="393" y="762"/>
      <point x="442" y="823"/>
      <point x="442" y="955" type="curve" smooth="yes"/>
      <point x="442" y="1123" type="line"/>
      <point x="790" y="1123" type="line"/>
      <point x="790" y="901" type="line"/>
      <point x="790" y="710"/>
      <point x="672" y="552"/>
      <point x="450" y="449" type="curve"/>
    </contour>
    <contour>
      <point x="-30" y="1065" type="line"/>
      <point x="-30" y="1293" type="line"/>
      <point x="1028" y="1293" type="line"/>
      <point x="1028" y="1065" type="line"/>
    </contour>
    <contour>
      <point x="521" y="506" type="curve"/>
      <point x="655" y="738" type="line"/>
      <point x="750" y="693"/>
      <point x="916" y="665"/>
      <point x="1042" y="665" type="curve" smooth="yes"/>
      <point x="1115" y="665"/>
      <point x="1198" y="674"/>
      <point x="1265" y="692" type="curve"/>
      <point x="1323" y="407" type="line"/>
      <point x="1254" y="392"/>
      <point x="1166" y="383"/>
      <point x="1068" y="383" type="curve" smooth="yes"/>
      <point x="867" y="383"/>
      <point x="652" y="438"/>
    </contour>
  </outline>
</glyph>
<glyph name="shadevaMAR" format="1">
  <advance width="1694"/>
  <outline>
    <contour>
      <point x="435" y="1104" type="line"/>
      <point x="783" y="1104" type="line"/>
      <point x="783" y="937" type="line"/>
      <point x="435" y="937" type="line"/>
    </contour>
    <contour>
      <point x="664" y="340" type="line"/>
      <point x="982" y="70" type="line"/>
      <point x="783" y="-112" type="line"/>
      <point x="408" y="215" type="line"/>
    </contour>
    <contour>
      <point x="326" y="138" type="curve" smooth="yes"/>
      <point x="186" y="138"/>
      <point x="130" y="225"/>
      <point x="130" y="330" type="curve" smooth="yes"/>
      <point x="130" y="443"/>
      <point x="216" y="565"/>
      <point x="332" y="565" type="curve" smooth="yes"/>
      <point x="416" y="565"/>
      <point x="479" y="521"/>
      <point x="563" y="442" type="curve"/>
      <point x="450" y="460" type="line"/>
      <point x="593" y="494"/>
      <point x="650" y="567"/>
      <point x="650" y="632" type="curve" smooth="yes"/>
      <point x="650" y="702"/>
      <point x="598" y="748"/>
      <point x="517" y="748" type="curve" smooth="yes"/>
      <point x="382" y="748"/>
      <point x="271" y="701"/>
      <point x="176" y="643" type="curve"/>
      <point x="89" y="901" type="line"/>
      <point x="201" y="946"/>
      <point x="316" y="986"/>
      <point x="535" y="986" type="curve" smooth="yes"/>
      <point x="843" y="987"/>
      <point x="984" y="839"/>
      <point x="984" y="630" type="curve" smooth="yes"/>
      <point x="984" y="355"/>
      <point x="604" y="138"/>
    </contour>
    <contour>
      <point x="1152" y="1104" type="line"/>
      <point x="1500" y="1104" type="line"/>
      <point x="1500" y="0" type="line"/>
      <point x="1152" y="0" type="line"/>
    </contour>
    <contour>
      <point x="1724" y="1065" type="line"/>
      <point x="-29" y="1065" type="line"/>
      <point x="-29" y="1293" type="line"/>
      <point x="1724" y="1293" type="line"/>
    </contour>
    <contour>
      <point x="1152" y="1293" type="move" name="top"/>
    </contour>
  </outline>
</glyph>
<glyph name="shaladeva" format="1">
  <advance width="2502"/>
  <outline>
    <contour>
      <point x="198" y="327" type="line"/>
      <point x="48" y="576" type="line"/>
      <point x="334" y="722" type="line"/>
      <point x="575" y="845"/>
      <point x="635" y="911"/>
      <point x="635" y="982" type="curve" smooth="yes"/>
      <point x="635" y="1037"/>
      <point x="601" y="1076"/>
      <point x="547" y="1076" type="curve" smooth="yes"/>
      <point x="480" y="1076"/>
      <point x="450" y="1036"/>
      <point x="450" y="986" type="curve" smooth="yes"/>
      <point x="450" y="872"/>
      <point x="686" y="776"/>
      <point x="1263" y="691" type="curve"/>
      <point x="1192" y="457" type="line"/>
      <point x="422" y="537"/>
      <point x="148" y="768"/>
      <point x="148" y="1027" type="curve" smooth="yes"/>
      <point x="148" y="1180"/>
      <point x="274" y="1326"/>
      <point x="522" y="1326" type="curve" smooth="yes"/>
      <point x="776" y="1326"/>
      <point x="917" y="1166"/>
      <point x="917" y="977" type="curve" smooth="yes"/>
      <point x="917" y="787"/>
      <point x="787" y="631"/>
      <point x="477" y="471" type="curve" smooth="yes"/>
    </contour>
    <contour>
      <point x="1965" y="1104" type="line"/>
      <point x="2313" y="1104" type="line"/>
      <point x="2313" y="0" type="line"/>
      <point x="1965" y="0" type="line"/>
    </contour>
    <contour>
      <point x="1069" y="1065" type="line"/>
      <point x="1069" y="1293" type="line"/>
      <point x="2532" y="1293" type="line"/>
      <point x="2532" y="1065" type="line"/>
    </contour>
    <contour>
      <point x="1913" y="642" type="curve"/>
      <point x="1709" y="472" type="line"/>
      <point x="1619" y="577"/>
      <point x="1547" y="618"/>
      <point x="1446" y="618" type="curve" smooth="yes"/>
      <point x="1324" y="618"/>
      <point x="1259" y="539"/>
      <point x="1259" y="439" type="curve" smooth="yes"/>
      <point x="1259" y="325"/>
      <point x="1326" y="231"/>
      <point x="1432" y="116" type="curve"/>
      <point x="1196" y="-15" type="line"/>
      <point x="1067" y="116"/>
      <point x="945" y="321"/>
      <point x="945" y="509" type="curve" smooth="yes"/>
      <point x="945" y="740"/>
      <point x="1109" y="908"/>
      <point x="1369" y="908" type="curve" smooth="yes"/>
      <point x="1576" y="908"/>
      <point x="1725" y="825"/>
    </contour>
    <contour>
      <point x="2082" y="997" type="line"/>
      <point x="2082" y="598" type="line"/>
      <point x="1649" y="197" type="line"/>
      <point x="1433" y="396" type="line"/>
    </contour>
    <contour>
      <point x="1965" y="1293" type="move" name="top"/>
    </contour>
  </outline>
</glyph>
<glyph name="shaprehalfdeva" format="1">
  <advance width="1031"/>
  <outline>
    <contour>
      <point x="606" y="397" type="line"/>
      <point x="928" y="119" type="line"/>
      <point x="729" y="-63" type="line"/>
      <point x="350" y="273" type="line"/>
    </contour>
    <contour>
      <point x="268" y="197" type="curve" smooth="yes"/>
      <point x="128" y="197"/>
      <point x="74" y="282"/>
      <point x="74" y="388" type="curve" smooth="yes"/>
      <point x="74" y="508"/>
      <point x="157" y="623"/>
      <point x="273" y="623" type="curve" smooth="yes"/>
      <point x="358" y="623"/>
      <point x="421" y="580"/>
      <point x="505" y="501" type="curve"/>
      <point x="392" y="518" type="line"/>
      <point x="553" y="572"/>
      <point x="685" y="730"/>
      <point x="685" y="888" type="curve" smooth="yes"/>
      <point x="685" y="989"/>
      <point x="614" y="1075"/>
      <point x="515" y="1075" type="curve" smooth="yes"/>
      <point x="460" y="1075"/>
      <point x="425" y="1038"/>
      <point x="425" y="992" type="curve" smooth="yes"/>
      <point x="425" y="915"/>
      <point x="510" y="845"/>
      <point x="764" y="823" type="curve"/>
      <point x="684" y="619" type="line"/>
      <point x="272" y="673"/>
      <point x="130" y="839"/>
      <point x="130" y="1031" type="curve" smooth="yes"/>
      <point x="130" y="1181"/>
      <point x="246" y="1325"/>
      <point x="482" y="1325" type="curve" smooth="yes"/>
      <point x="772" y="1325"/>
      <point x="974" y="1133"/>
      <point x="974" y="843" type="curve" smooth="yes"/>
      <point x="974" y="487"/>
      <point x="539" y="197"/>
    </contour>
  </outline>
</glyph>
<glyph name="shavaprehalfdeva" format="1">
  <advance width="1039"/>
  <outline>
    <contour>
      <point x="198" y="327" type="line"/>
      <point x="48" y="576" type="line"/>
      <point x="334" y="722" type="line"/>
      <point x="575" y="845"/>
      <point x="635" y="911"/>
      <point x="635" y="982" type="curve" smooth="yes"/>
      <point x="635" y="1037"/>
      <point x="601" y="1076"/>
      <point x="547" y="1076" type="curve" smooth="yes"/>
      <point x="480" y="1076"/>
      <point x="450" y="1036"/>
      <point x="450" y="986" type="curve" smooth="yes"/>
      <point x="450" y="872"/>
      <point x="666" y="779"/>
      <point x="1251" y="693" type="curve"/>
      <point x="1321" y="441" type="line"/>
      <point x="422" y="517"/>
      <point x="148" y="768"/>
      <point x="148" y="1027" type="curve" smooth="yes"/>
      <point x="148" y="1180"/>
      <point x="274" y="1326"/>
      <point x="522" y="1326" type="curve" smooth="yes"/>
      <point x="776" y="1326"/>
      <point x="917" y="1166"/>
      <point x="917" y="977" type="curve" smooth="yes"/>
      <point x="917" y="787"/>
      <point x="787" y="631"/>
      <point x="477" y="471" type="curve" smooth="yes"/>
    </contour>
    <contour>
      <point x="1039" y="90" type="curve" smooth="yes"/>
      <point x="1039" y="144"/>
      <point x="976" y="197"/>
      <point x="850" y="197" type="curve" smooth="yes"/>
      <point x="743" y="197"/>
      <point x="691" y="138"/>
      <point x="691" y="74" type="curve" smooth="yes"/>
      <point x="691" y="13"/>
      <point x="753" y="-30"/>
      <point x="831" y="-30" type="curve" smooth="yes"/>
      <point x="981" y="-30"/>
      <point x="1039" y="31"/>
    </contour>
    <contour>
      <point x="1287" y="81" type="curve" smooth="yes"/>
      <point x="1287" y="-83"/>
      <point x="1128" y="-252"/>
      <point x="856" y="-252" type="curve" smooth="yes"/>
      <point x="573" y="-252"/>
      <point x="402" y="-72"/>
      <point x="402" y="118" type="curve" smooth="yes"/>
      <point x="402" y="275"/>
      <point x="520" y="413"/>
      <point x="797" y="413" type="curve" smooth="yes"/>
      <point x="1100" y="413"/>
      <point x="1287" y="253"/>
    </contour>
  </outline>
</glyph>
<glyph name="ssaprehalfdeva" format="1">
  <advance width="705"/>
  <outline>
    <contour>
      <point x="883" y="606" type="line"/>
      <point x="756" y="512" type="line"/>
      <point x="309" y="1053" type="line"/>
      <point x="435" y="1147" type="line"/>
    </contour>
    <contour>
      <point x="735" y="1065" type="line"/>
      <point x="-30" y="1065" type="line"/>
      <point x="-30" y="1293" type="line"/>
      <point x="735" y="1293" type="line"/>
    </contour>
    <contour>
      <point x="452" y="1171" type="line"/>
      <point x="452" y="688" type="line"/>
      <point x="452" y="599"/>
      <point x="503" y="549"/>
      <point x="584" y="549" type="curve" smooth="yes"/>
      <point x="708" y="549"/>
      <point x="842" y="597"/>
      <point x="949" y="683" type="curve"/>
      <point x="1107" y="428" type="line"/>
      <point x="951" y="329"/>
      <point x="792" y="273"/>
      <point x="613" y="273" type="curve" smooth="yes"/>
      <point x="314" y="273"/>
      <point x="113" y="453"/>
      <point x="113" y="756" type="curve" smooth="yes"/>
      <point x="113" y="1171" type="line"/>
    </contour>
  </outline>
</glyph>
<glyph name="tanadeva" format="1">
  <advance width="2041"/>
  <outline>
    <contour>
      <point x="1067" y="849" type="line"/>
      <point x="1067" y="566" type="line"/>
      <point x="624" y="566" type="line"/>
      <point x="476" y="566"/>
      <point x="415" y="498"/>
      <point x="415" y="396" type="curve" smooth="yes"/>
      <point x="415" y="309"/>
      <point x="460" y="212"/>
      <point x="552" y="49" type="curve"/>
      <point x="274" y="-33" type="line"/>
      <point x="154" y="162"/>
      <point x="90" y="333"/>
      <point x="90" y="483" type="curve" smooth="yes"/>
      <point x="90" y="695"/>
      <point x="225" y="849"/>
      <point x="562" y="849" type="curve" smooth="yes"/>
    </contour>
    <contour>
      <point x="-30" y="1065" type="line"/>
      <point x="-30" y="1293" type="line"/>
      <point x="796" y="1293" type="line"/>
      <point x="796" y="1065" type="line"/>
    </contour>
    <component base="nadeva" xOffset="715"/>
  </outline>
</glyph>
<glyph name="tataprehalfdeva" format="1">
  <advance width="873"/>
  <outline>
    <contour>
      <point x="903" y="1065" type="line"/>
      <point x="-30" y="1065" type="line"/>
      <point x="-30" y="1293" type="line"/>
      <point x="903" y="1293" type="line"/>
    </contour>
    <contour>
      <point x="1159" y="584" type="line"/>
      <point x="12" y="584" type="line"/>
      <point x="12" y="867" type="line"/>
      <point x="1159" y="867" type="line"/>
    </contour>
    <contour>
      <point x="968" y="867" type="line"/>
      <point x="967" y="584" type="line"/>
      <point x="763" y="584" type="line"/>
      <point x="581" y="584"/>
      <point x="524" y="508"/>
      <point x="524" y="411" type="curve" smooth="yes"/>
      <point x="524" y="315"/>
      <point x="571" y="212"/>
      <point x="663" y="49" type="curve"/>
      <point x="386" y="-33" type="line"/>
      <point x="265" y="162"/>
      <point x="199" y="341"/>
      <point x="201" y="499" type="curve" smooth="yes"/>
      <point x="203" y="705"/>
      <point x="346" y="867"/>
      <point x="683" y="867" type="curve" smooth="yes"/>
    </contour>
  </outline>
</glyph>
<glyph name="tathadeva" format="1">
  <advance width="2194"/>
  <outline>
    <contour>
      <point x="1064" y="763" type="curve"/>
      <point x="929" y="475" type="line"/>
      <point x="799" y="574"/>
      <point x="729" y="611"/>
      <point x="616" y="611" type="curve" smooth="yes"/>
      <point x="469" y="611"/>
      <point x="413" y="515"/>
      <point x="413" y="415" type="curve" smooth="yes"/>
      <point x="413" y="319"/>
      <point x="462" y="209"/>
      <point x="552" y="49" type="curve"/>
      <point x="275" y="-33" type="line"/>
      <point x="156" y="159"/>
      <point x="88" y="344"/>
      <point x="90" y="503" type="curve" smooth="yes"/>
      <point x="92" y="720"/>
      <point x="224" y="901"/>
      <point x="533" y="901" type="curve" smooth="yes"/>
      <point x="723" y="901"/>
      <point x="904" y="840"/>
    </contour>
    <contour>
      <point x="-30" y="1065" type="line"/>
      <point x="-30" y="1293" type="line"/>
      <point x="817" y="1293" type="line"/>
      <point x="817" y="1065" type="line"/>
    </contour>
    <component base="thadeva" xOffset="690"/>
  </outline>
</glyph>
<glyph name="tayadeva" format="1">
  <advance width="2134"/>
  <outline>
    <contour>
      <point x="-30" y="1065" type="line"/>
      <point x="-30" y="1293" type="line"/>
      <point x="827" y="1293" type="line"/>
      <point x="827" y="1065" type="line"/>
    </contour>
    <contour>
      <point x="1073" y="763" type="curve"/>
      <point x="939" y="475" type="line"/>
      <point x="809" y="574"/>
      <point x="720" y="611"/>
      <point x="616" y="611" type="curve" smooth="yes"/>
      <point x="469" y="611"/>
      <point x="413" y="515"/>
      <point x="413" y="415" type="curve" smooth="yes"/>
      <point x="413" y="319"/>
      <point x="462" y="209"/>
      <point x="552" y="49" type="curve"/>
      <point x="275" y="-33" type="line"/>
      <point x="156" y="159"/>
      <point x="88" y="344"/>
      <point x="90" y="503" type="curve" smooth="yes"/>
      <point x="92" y="720"/>
      <point x="224" y="901"/>
      <point x="533" y="901" type="curve" smooth="yes"/>
      <point x="723" y="901"/>
      <point x="913" y="840"/>
    </contour>
    <component base="yadeva" xOffset="712"/>
  </outline>
</glyph>
<glyph name="thaprehalfdeva" format="1">
  <advance width="947"/>
  <outline>
    <contour>
      <point x="801" y="926" type="curve" smooth="yes"/>
      <point x="801" y="721"/>
      <point x="628" y="570"/>
      <point x="417" y="519" type="curve"/>
      <point x="418" y="619" type="line"/>
      <point x="483" y="542"/>
      <point x="560" y="490"/>
      <point x="678" y="490" type="curve" smooth="yes"/>
      <point x="856" y="490"/>
      <point x="1013" y="532"/>
      <point x="1188" y="685" type="curve"/>
      <point x="1323" y="425" type="line"/>
      <point x="1177" y="279"/>
      <point x="975" y="212"/>
      <point x="780" y="212" type="curve" smooth="yes"/>
      <point x="513" y="212"/>
      <point x="232" y="379"/>
      <point x="96" y="669" type="curve"/>
      <point x="96" y="676" type="line"/>
      <point x="309" y="715"/>
      <point x="505" y="828"/>
      <point x="505" y="967" type="curve" smooth="yes"/>
      <point x="505" y="1055"/>
      <point x="450" y="1105"/>
      <point x="392" y="1105" type="curve" smooth="yes"/>
      <point x="343" y="1105"/>
      <point x="315" y="1071"/>
      <point x="315" y="1022" type="curve" smooth="yes"/>
      <point x="315" y="962"/>
      <point x="366" y="904"/>
      <point x="490" y="856" type="curve"/>
      <point x="391" y="712" type="line"/>
      <point x="115" y="794"/>
      <point x="12" y="927"/>
      <point x="12" y="1082" type="curve" smooth="yes"/>
      <point x="12" y="1219"/>
      <point x="114" y="1340"/>
      <point x="324" y="1340" type="curve" smooth="yes"/>
      <point x="628" y="1340"/>
      <point x="801" y="1138"/>
    </contour>
  </outline>
</glyph>
<glyph name="tthatthadeva" format="1">
  <advance width="1354"/>
  <outline>
    <contour>
      <point x="899" y="-315" type="curve" smooth="yes"/>
      <point x="899" y="-259"/>
      <point x="872" y="-218"/>
      <point x="828" y="-195" type="curve"/>
      <point x="623" y="-195" type="line"/>
      <point x="449" y="-195"/>
      <point x="388" y="-264"/>
      <point x="388" y="-336" type="curve" smooth="yes"/>
      <point x="388" y="-410"/>
      <point x="469" y="-478"/>
      <point x="634" y="-478" type="curve" smooth="yes"/>
      <point x="828" y="-478"/>
      <point x="899" y="-404"/>
    </contour>
    <contour>
      <point x="575" y="190" type="line"/>
      <point x="924" y="190" type="line"/>
      <point x="924" y="-27" type="line"/>
      <point x="889" y="44" type="line"/>
      <point x="1107" y="-38"/>
      <point x="1203" y="-184"/>
      <point x="1203" y="-355" type="curve" smooth="yes"/>
      <point x="1203" y="-531"/>
      <point x="1043" y="-715"/>
      <point x="687" y="-715" type="curve" smooth="yes"/>
      <point x="283" y="-715"/>
      <point x="59" y="-510"/>
      <point x="59" y="-290" type="curve" smooth="yes"/>
      <point x="59" y="-95"/>
      <point x="216" y="58"/>
      <point x="536" y="58" type="curve" smooth="yes"/>
      <point x="637" y="58" type="line"/>
      <point x="575" y="1" type="line"/>
    </contour>
    <contour>
      <point x="931" y="559" type="curve" smooth="yes"/>
      <point x="931" y="616"/>
      <point x="905" y="665"/>
      <point x="853" y="699" type="curve"/>
      <point x="660" y="699" type="line"/>
      <point x="461" y="699"/>
      <point x="385" y="608"/>
      <point x="385" y="536" type="curve" smooth="yes"/>
      <point x="385" y="462"/>
      <point x="472" y="376"/>
      <point x="654" y="376" type="curve" smooth="yes"/>
      <point x="851" y="376"/>
      <point x="931" y="470"/>
    </contour>
    <contour>
      <point x="1384" y="1065" type="line"/>
      <point x="-30" y="1065" type="line"/>
      <point x="-30" y="1293" type="line"/>
      <point x="1384" y="1293" type="line"/>
    </contour>
    <contour>
      <point x="792" y="1086" type="line"/>
      <point x="1140" y="1086" type="line"/>
      <point x="1140" y="774" type="line"/>
      <point x="1096" y="873" type="line"/>
      <point x="1206" y="749"/>
      <point x="1255" y="653"/>
      <point x="1255" y="509" type="curve" smooth="yes"/>
      <point x="1255" y="325"/>
      <point x="1067" y="137"/>
      <point x="707" y="136" type="curve" smooth="yes"/>
      <point x="283" y="135"/>
      <point x="57" y="354"/>
      <point x="57" y="584" type="curve" smooth="yes"/>
      <point x="57" y="790"/>
      <point x="233" y="951"/>
      <point x="553" y="951" type="curve" smooth="yes"/>
      <point x="853" y="951" type="line"/>
      <point x="792" y="895" type="line"/>
    </contour>
    <contour>
      <point x="466" y="-713" type="move" name="btm"/>
    </contour>
    <contour>
      <point x="722" y="1293" type="move" name="top"/>
    </contour>
  </outline>
</glyph>
<glyph name="uuvowelsignlowdeva" format="1">
  <advance width="0"/>
  <outline>
    <contour>
      <point x="-132" y="-571" type="line"/>
      <point x="-212" y="-598"/>
      <point x="-284" y="-605"/>
      <point x="-385" y="-605" type="curve" smooth="yes"/>
      <point x="-613" y="-605"/>
      <point x="-834" y="-475"/>
      <point x="-834" y="-258" type="curve" smooth="yes"/>
      <point x="-834" y="-109"/>
      <point x="-668" y="39"/>
      <point x="-415" y="39" type="curve" smooth="yes"/>
      <point x="-136" y="39"/>
      <point x="54" y="-97"/>
      <point x="300" y="-361" type="curve"/>
      <point x="137" y="-531" type="line"/>
      <point x="-104" y="-275"/>
      <point x="-236" y="-216"/>
      <point x="-382" y="-216" type="curve" smooth="yes"/>
      <point x="-483" y="-216"/>
      <point x="-531" y="-263"/>
      <point x="-531" y="-317" type="curve" smooth="yes"/>
      <point x="-531" y="-366"/>
      <point x="-489" y="-399"/>
      <point x="-404" y="-399" type="curve" smooth="yes"/>
      <point x="-346" y="-399"/>
      <point x="-293" y="-394"/>
      <point x="-207" y="-364" type="curve"/>
    </contour>
    <contour>
      <point x="-445" y="0" type="move" name="_btm"/>
    </contour>
  </outline>
</glyph>
<glyph name="vaprehalfdeva" format="1">
  <advance width="719"/>
  <outline>
    <contour>
      <point x="749" y="1065" type="line"/>
      <point x="-30" y="1065" type="line"/>
      <point x="-30" y="1293" type="line"/>
      <point x="749" y="1293" type="line"/>
    </contour>
    <contour>
      <point x="747" y="569" type="curve" smooth="yes"/>
      <point x="747" y="637"/>
      <point x="667" y="699"/>
      <point x="556" y="699" type="curve" smooth="yes"/>
      <point x="439" y="699"/>
      <point x="381" y="634"/>
      <point x="381" y="556" type="curve" smooth="yes"/>
      <point x="381" y="480"/>
      <point x="437" y="425"/>
      <point x="531" y="425" type="curve" smooth="yes"/>
      <point x="650" y="425"/>
      <point x="747" y="493"/>
    </contour>
    <contour>
      <point x="1044" y="556" type="curve" smooth="yes"/>
      <point x="1044" y="346"/>
      <point x="846" y="159"/>
      <point x="559" y="159" type="curve" smooth="yes"/>
      <point x="249" y="159"/>
      <point x="58" y="376"/>
      <point x="58" y="605" type="curve" smooth="yes"/>
      <point x="58" y="801"/>
      <point x="206" y="949"/>
      <point x="486" y="949" type="curve" smooth="yes"/>
      <point x="847" y="949"/>
      <point x="1044" y="758"/>
    </contour>
  </outline>
</glyph>
<glyph name="vatturvocaliclowdeva" format="1">
  <advance width="-1"/>
  <outline>
    <component base="vattulowdeva"/>
    <component base="rvocalicvowelsignlowdeva" xScale="0.961162137604" yScale="0.933475377411" xOffset="35" yOffset="-403"/>
    <contour>
      <point x="-551" y="-2" type="move" name="_btm"/>
    </contour>
  </outline>
</glyph>
<glyph name="vattuulowdeva" format="1">
  <advance width="-1"/>
  <outline>
    <component base="uvowelsignlowdeva" xScale="0.875483838547" yScale="0.923357433068" xOffset="3" yOffset="-388"/>
    <component base="vattulowdeva"/>
    <contour>
      <point x="-551" y="-2" type="move" name="_btm"/>
    </contour>
  </outline>
</glyph>
